{
  "accessors": [
    {
      "bufferView": 2,
      "componentType": 5126,
      "count": 8260,
      "max": [
        0.6569229960441589,
        0.2744860053062439,
        1.0
      ],
      "min": [
        -0.6569229960441589,
        -0.30904799699783325,
        -1.0
      ],
      "type": "VEC3"
    },
    {
      "bufferView": 2,
      "byteOffset": 99120,
      "componentType": 5126,
      "count": 8260,
      "max": [
        1.0,
        0.999966025352478,
        1.0
      ],
      "min": [
        -1.0,
        -0.999966025352478,
        -1.0
      ],
      "type": "VEC3"
    },
    {
      "bufferView": 3,
      "componentType": 5126,
      "count": 8260,
      "max": [
        1.0,
        1.0,
        0.9998311996459961,
        1.0
      ],
      "min": [
        -1.0,
        -1.0,
        -0.999966025352478,
        -1.0
      ],
      "type": "VEC4"
    },
    {
      "bufferView": 1,
      "componentType": 5126,
      "count": 8260,
      "max": [
        0.9963359832763672,
        0.9964150190353394
      ],
      "min": [
        0.0035745499189943075,
        0.003573260037228465
      ],
      "type": "VEC2"
    },
    {
      "bufferView": 0,
      "componentType": 5125,
      "count": 17223,
      "type": "SCALAR"
    },
    {
      "bufferView": 2,
      "byteOffset": 198240,
      "componentType": 5126,
      "count": 65532,
      "max": [
        0.03212380036711693,
        0.3026840090751648,
        0.9778479933738708
      ],
      "min": [
        -0.6396999955177307,
        -0.2950870096683502,
        -0.9831349849700928
      ],
      "type": "VEC3"
    },
    {
      "bufferView": 2,
      "byteOffset": 984624,
      "componentType": 5126,
      "count": 65532,
      "max": [
        1.0,
        1.0,
        1.0
      ],
      "min": [
        -1.0,
        -1.0,
        -1.0
      ],
      "type": "VEC3"
    },
    {
      "bufferView": 3,
      "byteOffset": 132160,
      "componentType": 5126,
      "count": 65532,
      "max": [
        1.0,
        1.0,
        1.0,
        1.0
      ],
      "min": [
        -1.0,
        -1.0,
        -1.0,
        -1.0
      ],
      "type": "VEC4"
    },
    {
      "bufferView": 1,
      "byteOffset": 66080,
      "componentType": 5126,
      "count": 65532,
      "max": [
        0.9990280270576477,
        0.9990320205688477
      ],
      "min": [
        0.000912981980945915,
        0.0009125230135396123
      ],
      "type": "VEC2"
    },
    {
      "bufferView": 0,
      "byteOffset": 68892,
      "componentType": 5125,
      "count": 145971,
      "type": "SCALAR"
    },
    {
      "bufferView": 2,
      "byteOffset": 1771008,
      "componentType": 5126,
      "count": 65533,
      "max": [
        0.5711780190467834,
        0.11276800185441971,
        0.9778479933738708
      ],
      "min": [
        -0.17450599372386932,
        -0.16129299998283386,
        -0.7979360222816467
      ],
      "type": "VEC3"
    },
    {
      "bufferView": 2,
      "byteOffset": 2557404,
      "componentType": 5126,
      "count": 65533,
      "max": [
        1.0,
        1.0,
        0.9999407529830933
      ],
      "min": [
        -1.0,
        -1.0,
        -0.9999409914016724
      ],
      "type": "VEC3"
    },
    {
      "bufferView": 3,
      "byteOffset": 1180672,
      "componentType": 5126,
      "count": 65533,
      "max": [
        1.0,
        1.0,
        0.9999980330467224,
        1.0
      ],
      "min": [
        -1.0,
        -1.0,
        -0.9999988079071045,
        -1.0
      ],
      "type": "VEC4"
    },
    {
      "bufferView": 1,
      "byteOffset": 590336,
      "componentType": 5126,
      "count": 65533,
      "max": [
        0.9990280270576477,
        0.9990320205688477
      ],
      "min": [
        0.0009126610239036381,
        0.0009128350066021085
      ],
      "type": "VEC2"
    },
    {
      "bufferView": 0,
      "byteOffset": 652776,
      "componentType": 5125,
      "count": 151557,
      "type": "SCALAR"
    },
    {
      "bufferView": 2,
      "byteOffset": 3343800,
      "componentType": 5126,
      "count": 65533,
      "max": [
        0.6396999955177307,
        0.3026840090751648,
        0.24550999701023102
      ],
      "min": [
        -0.22518199682235718,
        -0.2950870096683502,
        -0.9831349849700928
      ],
      "type": "VEC3"
    },
    {
      "bufferView": 2,
      "byteOffset": 4130196,
      "componentType": 5126,
      "count": 65533,
      "max": [
        1.0,
        1.0,
        1.0
      ],
      "min": [
        -1.0,
        -1.0,
        -1.0
      ],
      "type": "VEC3"
    },
    {
      "bufferView": 3,
      "byteOffset": 2229200,
      "componentType": 5126,
      "count": 65533,
      "max": [
        1.0,
        1.0,
        1.0,
        1.0
      ],
      "min": [
        -1.0,
        -1.0,
        -1.0,
        -1.0
      ],
      "type": "VEC4"
    },
    {
      "bufferView": 1,
      "byteOffset": 1114600,
      "componentType": 5126,
      "count": 65533,
      "max": [
        0.9990230202674866,
        0.9990310072898865
      ],
      "min": [
        0.0009124790085479617,
        0.0009125230135396123
      ],
      "type": "VEC2"
    },
    {
      "bufferView": 0,
      "byteOffset": 1259004,
      "componentType": 5125,
      "count": 139584,
      "type": "SCALAR"
    },
    {
      "bufferView": 2,
      "byteOffset": 4916592,
      "componentType": 5126,
      "count": 43202,
      "max": [
        -0.0011319699697196484,
        0.1382479965686798,
        -0.0751613974571228
      ],
      "min": [
        -0.3030340075492859,
        -0.07230609655380249,
        -0.8775510191917419
      ],
      "type": "VEC3"
    },
    {
      "bufferView": 2,
      "byteOffset": 5435016,
      "componentType": 5126,
      "count": 43202,
      "max": [
        1.0,
        0.9999980926513672,
        0.999954104423523
      ],
      "min": [
        -1.0,
        -0.9999980926513672,
        -0.999954342842102
      ],
      "type": "VEC3"
    },
    {
      "bufferView": 3,
      "byteOffset": 3277728,
      "componentType": 5126,
      "count": 43202,
      "max": [
        1.0,
        0.9999889135360718,
        0.9999979138374329,
        -1.0
      ],
      "min": [
        -1.0,
        -0.9999088644981384,
        -0.9999988079071045,
        -1.0
      ],
      "type": "VEC4"
    },
    {
      "bufferView": 1,
      "byteOffset": 1638864,
      "componentType": 5126,
      "count": 43202,
      "max": [
        0.9990270137786865,
        0.9989500045776367
      ],
      "min": [
        0.0009124790085479617,
        0.0009128350066021085
      ],
      "type": "VEC2"
    },
    {
      "bufferView": 0,
      "byteOffset": 1817340,
      "componentType": 5125,
      "count": 95334,
      "type": "SCALAR"
    },
    {
      "bufferView": 2,
      "byteOffset": 5953440,
      "componentType": 5126,
      "count": 48266,
      "max": [
        0.626151978969574,
        0.30904799699783325,
        0.3548929989337921
      ],
      "min": [
        -0.626151978969574,
        -0.3005340099334717,
        -0.978564977645874
      ],
      "type": "VEC3"
    },
    {
      "bufferView": 2,
      "byteOffset": 6532632,
      "componentType": 5126,
      "count": 48266,
      "max": [
        1.0,
        1.0,
        1.0
      ],
      "min": [
        -1.0,
        -1.0,
        -1.0
      ],
      "type": "VEC3"
    },
    {
      "bufferView": 3,
      "byteOffset": 3968960,
      "componentType": 5126,
      "count": 48266,
      "max": [
        1.0,
        1.0,
        1.0,
        1.0
      ],
      "min": [
        -1.0,
        -1.0,
        -1.0,
        -1.0
      ],
      "type": "VEC4"
    },
    {
      "bufferView": 1,
      "byteOffset": 1984480,
      "componentType": 5126,
      "count": 48266,
      "max": [
        0.9954320192337036,
        0.9954439997673035
      ],
      "min": [
        0.00445983000099659,
        0.004459400195628405
      ],
      "type": "VEC2"
    },
    {
      "bufferView": 0,
      "byteOffset": 2198676,
      "componentType": 5125,
      "count": 116832,
      "type": "SCALAR"
    },
    {
      "bufferView": 2,
      "byteOffset": 7111824,
      "componentType": 5126,
      "count": 1234,
      "max": [
        0.3380439877510071,
        -0.061333201825618744,
        -0.3843030035495758
      ],
      "min": [
        0.30128398537635803,
        -0.07703039795160294,
        -0.42148101329803467
      ],
      "type": "VEC3"
    },
    {
      "bufferView": 2,
      "byteOffset": 7126632,
      "componentType": 5126,
      "count": 1234,
      "max": [
        0.9997051358222961,
        0.9966148734092712,
        0.9975677728652954
      ],
      "min": [
        -0.9997051358222961,
        -0.9954459071159363,
        -0.9976721405982971
      ],
      "type": "VEC3"
    },
    {
      "bufferView": 3,
      "byteOffset": 4741216,
      "componentType": 5126,
      "count": 1234,
      "max": [
        0.9990483522415161,
        0.9972735047340393,
        0.9975656867027283,
        1.0
      ],
      "min": [
        -0.9848078489303589,
        -0.9973052740097046,
        -0.9976228475570679,
        1.0
      ],
      "type": "VEC4"
    },
    {
      "bufferView": 1,
      "byteOffset": 2370608,
      "componentType": 5126,
      "count": 1234,
      "max": [
        0.9964179992675781,
        0.9964010119438171
      ],
      "min": [
        0.0035820300690829754,
        0.0035986800212413073
      ],
      "type": "VEC2"
    },
    {
      "bufferView": 0,
      "byteOffset": 2666004,
      "componentType": 5125,
      "count": 2808,
      "type": "SCALAR"
    },
    {
      "bufferView": 2,
      "byteOffset": 7141440,
      "componentType": 5126,
      "count": 1234,
      "max": [
        0.3380439877510071,
        -0.05584640055894852,
        -0.46276700496673584
      ],
      "min": [
        0.30128398537635803,
        -0.07154359668493271,
        -0.4999459981918335
      ],
      "type": "VEC3"
    },
    {
      "bufferView": 2,
      "byteOffset": 7156248,
      "componentType": 5126,
      "count": 1234,
      "max": [
        0.9997051358222961,
        0.9966148734092712,
        0.9975677728652954
      ],
      "min": [
        -0.9997051358222961,
        -0.9954459071159363,
        -0.9976721405982971
      ],
      "type": "VEC3"
    },
    {
      "bufferView": 3,
      "byteOffset": 4760960,
      "componentType": 5126,
      "count": 1234,
      "max": [
        0.9990482926368713,
        0.9972843527793884,
        0.9975660443305969,
        1.0
      ],
      "min": [
        -0.9848077893257141,
        -0.9972819685935974,
        -0.9976228475570679,
        1.0
      ],
      "type": "VEC4"
    },
    {
      "bufferView": 1,
      "byteOffset": 2380480,
      "componentType": 5126,
      "count": 1234,
      "max": [
        0.9964179992675781,
        0.9964010119438171
      ],
      "min": [
        0.0035820300690829754,
        0.0035986800212413073
      ],
      "type": "VEC2"
    },
    {
      "bufferView": 0,
      "byteOffset": 2677236,
      "componentType": 5125,
      "count": 2808,
      "type": "SCALAR"
    },
    {
      "bufferView": 2,
      "byteOffset": 7171056,
      "componentType": 5126,
      "count": 1234,
      "max": [
        0.3380439877510071,
        -0.050514500588178635,
        -0.5390179753303528
      ],
      "min": [
        0.30128398537635803,
        -0.06621170043945313,
        -0.5761970281600952
      ],
      "type": "VEC3"
    },
    {
      "bufferView": 2,
      "byteOffset": 7185864,
      "componentType": 5126,
      "count": 1234,
      "max": [
        0.9997051358222961,
        0.9966148734092712,
        0.9975677728652954
      ],
      "min": [
        -0.9997051358222961,
        -0.9954459071159363,
        -0.9976721405982971
      ],
      "type": "VEC3"
    },
    {
      "bufferView": 3,
      "byteOffset": 4780704,
      "componentType": 5126,
      "count": 1234,
      "max": [
        0.9990483522415161,
        0.9972862005233765,
        0.9975645542144775,
        1.0
      ],
      "min": [
        -0.9848078489303589,
        -0.9972843527793884,
        -0.9976226091384888,
        1.0
      ],
      "type": "VEC4"
    },
    {
      "bufferView": 1,
      "byteOffset": 2390352,
      "componentType": 5126,
      "count": 1234,
      "max": [
        0.9964179992675781,
        0.9964010119438171
      ],
      "min": [
        0.0035820300690829754,
        0.0035986800212413073
      ],
      "type": "VEC2"
    },
    {
      "bufferView": 0,
      "byteOffset": 2688468,
      "componentType": 5125,
      "count": 2808,
      "type": "SCALAR"
    },
    {
      "bufferView": 2,
      "byteOffset": 7200672,
      "componentType": 5126,
      "count": 1234,
      "max": [
        0.3380439877510071,
        -0.04517019912600517,
        -0.615444004535675
      ],
      "min": [
        0.30128398537635803,
        -0.06086739897727966,
        -0.6526229977607727
      ],
      "type": "VEC3"
    },
    {
      "bufferView": 2,
      "byteOffset": 7215480,
      "componentType": 5126,
      "count": 1234,
      "max": [
        0.9997051358222961,
        0.9966148734092712,
        0.9975677728652954
      ],
      "min": [
        -0.9997051358222961,
        -0.9954459071159363,
        -0.9976721405982971
      ],
      "type": "VEC3"
    },
    {
      "bufferView": 3,
      "byteOffset": 4800448,
      "componentType": 5126,
      "count": 1234,
      "max": [
        0.9990482926368713,
        0.9972861409187317,
        0.9975655674934387,
        1.0
      ],
      "min": [
        -0.9848077893257141,
        -0.9972866177558899,
        -0.9976224899291992,
        1.0
      ],
      "type": "VEC4"
    },
    {
      "bufferView": 1,
      "byteOffset": 2400224,
      "componentType": 5126,
      "count": 1234,
      "max": [
        0.9964179992675781,
        0.9964010119438171
      ],
      "min": [
        0.0035820300690829754,
        0.0035986800212413073
      ],
      "type": "VEC2"
    },
    {
      "bufferView": 0,
      "byteOffset": 2699700,
      "componentType": 5125,
      "count": 2808,
      "type": "SCALAR"
    },
    {
      "bufferView": 2,
      "byteOffset": 7230288,
      "componentType": 5126,
      "count": 1234,
      "max": [
        -0.30128398537635803,
        -0.04517019912600517,
        -0.615444004535675
      ],
      "min": [
        -0.3380439877510071,
        -0.06086739897727966,
        -0.6526229977607727
      ],
      "type": "VEC3"
    },
    {
      "bufferView": 2,
      "byteOffset": 7245096,
      "componentType": 5126,
      "count": 1234,
      "max": [
        0.9997051358222961,
        0.9966148734092712,
        0.9975677728652954
      ],
      "min": [
        -0.9997051358222961,
        -0.9954459071159363,
        -0.9976722598075867
      ],
      "type": "VEC3"
    },
    {
      "bufferView": 3,
      "byteOffset": 4820192,
      "componentType": 5126,
      "count": 1234,
      "max": [
        0.9848078489303589,
        0.9973298907279968,
        0.9975655674934387,
        -1.0
      ],
      "min": [
        -0.9990482926368713,
        -0.9972957372665405,
        -0.9976224899291992,
        -1.0
      ],
      "type": "VEC4"
    },
    {
      "bufferView": 1,
      "byteOffset": 2410096,
      "componentType": 5126,
      "count": 1234,
      "max": [
        0.9964179992675781,
        0.9964010119438171
      ],
      "min": [
        0.0035820300690829754,
        0.0035986800212413073
      ],
      "type": "VEC2"
    },
    {
      "bufferView": 0,
      "byteOffset": 2710932,
      "componentType": 5125,
      "count": 2808,
      "type": "SCALAR"
    },
    {
      "bufferView": 2,
      "byteOffset": 7259904,
      "componentType": 5126,
      "count": 1234,
      "max": [
        -0.30128398537635803,
        -0.050514500588178635,
        -0.5390179753303528
      ],
      "min": [
        -0.3380439877510071,
        -0.06621170043945313,
        -0.5761970281600952
      ],
      "type": "VEC3"
    },
    {
      "bufferView": 2,
      "byteOffset": 7274712,
      "componentType": 5126,
      "count": 1234,
      "max": [
        0.9997051358222961,
        0.9966148734092712,
        0.9975677728652954
      ],
      "min": [
        -0.9997051358222961,
        -0.9954459071159363,
        -0.9976722598075867
      ],
      "type": "VEC3"
    },
    {
      "bufferView": 3,
      "byteOffset": 4839936,
      "componentType": 5126,
      "count": 1234,
      "max": [
        0.9848078489303589,
        0.9973240494728088,
        0.9975645542144775,
        -1.0
      ],
      "min": [
        -0.9990482926368713,
        -0.99728924036026,
        -0.9976226687431335,
        -1.0
      ],
      "type": "VEC4"
    },
    {
      "bufferView": 1,
      "byteOffset": 2419968,
      "componentType": 5126,
      "count": 1234,
      "max": [
        0.9964179992675781,
        0.9964010119438171
      ],
      "min": [
        0.0035820300690829754,
        0.0035986800212413073
      ],
      "type": "VEC2"
    },
    {
      "bufferView": 0,
      "byteOffset": 2722164,
      "componentType": 5125,
      "count": 2808,
      "type": "SCALAR"
    },
    {
      "bufferView": 2,
      "byteOffset": 7289520,
      "componentType": 5126,
      "count": 1234,
      "max": [
        -0.30128398537635803,
        -0.05584640055894852,
        -0.46276700496673584
      ],
      "min": [
        -0.3380439877510071,
        -0.07154359668493271,
        -0.4999459981918335
      ],
      "type": "VEC3"
    },
    {
      "bufferView": 2,
      "byteOffset": 7304328,
      "componentType": 5126,
      "count": 1234,
      "max": [
        0.9997051358222961,
        0.9966148734092712,
        0.9975677728652954
      ],
      "min": [
        -0.9997051358222961,
        -0.9954459071159363,
        -0.9976722598075867
      ],
      "type": "VEC3"
    },
    {
      "bufferView": 3,
      "byteOffset": 4859680,
      "componentType": 5126,
      "count": 1234,
      "max": [
        0.9848078489303589,
        0.9973212480545044,
        0.9975659847259521,
        -1.0
      ],
      "min": [
        -0.9990482926368713,
        -0.9972943067550659,
        -0.9976229071617126,
        -1.0
      ],
      "type": "VEC4"
    },
    {
      "bufferView": 1,
      "byteOffset": 2429840,
      "componentType": 5126,
      "count": 1234,
      "max": [
        0.9964179992675781,
        0.9964010119438171
      ],
      "min": [
        0.0035820300690829754,
        0.0035986800212413073
      ],
      "type": "VEC2"
    },
    {
      "bufferView": 0,
      "byteOffset": 2733396,
      "componentType": 5125,
      "count": 2808,
      "type": "SCALAR"
    },
    {
      "bufferView": 2,
      "byteOffset": 7319136,
      "componentType": 5126,
      "count": 1234,
      "max": [
        -0.30128398537635803,
        -0.061333201825618744,
        -0.3843030035495758
      ],
      "min": [
        -0.3380439877510071,
        -0.07703039795160294,
        -0.42148101329803467
      ],
      "type": "VEC3"
    },
    {
      "bufferView": 2,
      "byteOffset": 7333944,
      "componentType": 5126,
      "count": 1234,
      "max": [
        0.9997051358222961,
        0.9966148734092712,
        0.9975677728652954
      ],
      "min": [
        -0.9997051358222961,
        -0.9954459071159363,
        -0.9976722598075867
      ],
      "type": "VEC3"
    },
    {
      "bufferView": 3,
      "byteOffset": 4879424,
      "componentType": 5126,
      "count": 1234,
      "max": [
        0.9848078489303589,
        0.9972817301750183,
        0.9975656867027283,
        -1.0
      ],
      "min": [
        -0.9990482330322266,
        -0.9974337816238403,
        -0.9976228475570679,
        -1.0
      ],
      "type": "VEC4"
    },
    {
      "bufferView": 1,
      "byteOffset": 2439712,
      "componentType": 5126,
      "count": 1234,
      "max": [
        0.9964179992675781,
        0.9964010119438171
      ],
      "min": [
        0.0035820300690829754,
        0.0035986800212413073
      ],
      "type": "VEC2"
    },
    {
      "bufferView": 0,
      "byteOffset": 2744628,
      "componentType": 5125,
      "count": 2808,
      "type": "SCALAR"
    }
  ],
  "asset": {
    "extras": {
      "author": "LarsH. (https://sketchfab.com/LarsH.)",
      "license": "CC-BY-4.0 (http://creativecommons.org/licenses/by/4.0/)",
      "source": "https://sketchfab.com/3d-models/imperial-i-class-star-destroyer-6913bf20402a4eaea3e59109db0fbea4",
      "title": "Imperial I-Class Star Destroyer"
    },
    "generator": "Sketchfab-15.40.0",
    "version": "2.0"
  },
  "bufferViews": [
    {
      "buffer": 0,
      "byteLength": 2755860,
      "name": "floatBufferViews",
      "target": 34963
    },
    {
      "buffer": 0,
      "byteLength": 2449584,
      "byteOffset": 2755860,
      "byteStride": 8,
      "name": "floatBufferViews",
      "target": 34962
    },
    {
      "buffer": 0,
      "byteLength": 7348752,
      "byteOffset": 5205444,
      "byteStride": 12,
      "name": "floatBufferViews",
      "target": 34962
    },
    {
      "buffer": 0,
      "byteLength": 4899168,
      "byteOffset": 12554196,
      "byteStride": 16,
      "name": "floatBufferViews",
      "target": 34962
    }
  ],
  "buffers": [
    {
      "byteLength": 17453364,
      "uri": "scene.bin"
    }
  ],
  "extensionsUsed": [
    "KHR_materials_emissive_strength"
  ],
  "images": [
    {
      "uri": "textures/StarDestroyer_Turbolaser_baseColor.jpeg"
    },
    {
      "uri": "textures/StarDestroyer_Turbolaser_metallicRoughness.png"
    },
    {
      "uri": "textures/StarDestroyer_Turbolaser_normal.png"
    },
    {
      "uri": "textures/StarDestroyer_BasicDetails_baseColor.jpeg"
    },
    {
      "uri": "textures/StarDestroyer_BasicDetails_metallicRoughness.png"
    },
    {
      "uri": "textures/StarDestroyer_BasicDetails_emissive.jpeg"
    },
    {
      "uri": "textures/StarDestroyer_BasicDetails_normal.png"
    },
    {
      "uri": "textures/StarDestroyer_FineDetails_baseColor.jpeg"
    },
    {
      "uri": "textures/StarDestroyer_FineDetails_metallicRoughness.png"
    },
    {
      "uri": "textures/StarDestroyer_FineDetails_emissive.jpeg"
    },
    {
      "uri": "textures/StarDestroyer_FineDetails_normal.png"
    },
    {
      "uri": "textures/StarDestroyer_BasicHull_baseColor.jpeg"
    },
    {
      "uri": "textures/StarDestroyer_BasicHull_metallicRoughness.png"
    },
    {
      "uri": "textures/StarDestroyer_BasicHull_emissive.jpeg"
    },
    {
      "uri": "textures/StarDestroyer_BasicHull_normal.png"
    }
  ],
  "materials": [
    {
      "doubleSided": true,
      "name": "StarDestroyer_Turbolaser",
      "normalTexture": {
        "index": 2
      },
      "occlusionTexture": {
        "index": 1
      },
      "pbrMetallicRoughness": {
        "baseColorTexture": {
          "index": 0
        },
        "metallicRoughnessTexture": {
          "index": 1
        }
      }
    },
    {
      "doubleSided": true,
      "emissiveFactor": [
        1.0,
        1.0,
        1.0
      ],
      "emissiveTexture": {
        "index": 5
      },
      "extensions": {
        "KHR_materials_emissive_strength": {
          "emissiveStrength": 10.0
        }
      },
      "name": "StarDestroyer_BasicDetails",
      "normalTexture": {
        "index": 6
      },
      "occlusionTexture": {
        "index": 4
      },
      "pbrMetallicRoughness": {
        "baseColorTexture": {
          "index": 3
        },
        "metallicRoughnessTexture": {
          "index": 4
        }
      }
    },
    {
      "doubleSided": true,
      "emissiveFactor": [
        1.0,
        1.0,
        1.0
      ],
      "emissiveTexture": {
        "index": 9
      },
      "extensions": {
        "KHR_materials_emissive_strength": {
          "emissiveStrength": 10.0
        }
      },
      "name": "StarDestroyer_FineDetails",
      "normalTexture": {
        "index": 10
      },
      "occlusionTexture": {
        "index": 8
      },
      "pbrMetallicRoughness": {
        "baseColorTexture": {
          "index": 7
        },
        "metallicRoughnessTexture": {
          "index": 8
        }
      }
    },
    {
      "doubleSided": true,
      "emissiveFactor": [
        1.0,
        1.0,
        1.0
      ],
      "emissiveTexture": {
        "index": 13
      },
      "extensions": {
        "KHR_materials_emissive_strength": {
          "emissiveStrength": 10.0
        }
      },
      "name": "StarDestroyer_BasicHull",
      "normalTexture": {
        "index": 14
      },
      "occlusionTexture": {
        "index": 12
      },
      "pbrMetallicRoughness": {
        "baseColorTexture": {
          "index": 11
        },
        "metallicRoughnessTexture": {
          "index": 12
        }
      }
    }
  ],
  "meshes": [
    {
      "name": "defaultMaterial",
      "primitives": [
        {
          "attributes": {
            "NORMAL": 1,
            "POSITION": 0,
            "TANGENT": 2,
            "TEXCOORD_0": 3
          },
          "indices": 4,
          "material": 3,
          "mode": 4
        }
      ]
    },
    {
      "name": "defaultMaterial",
      "primitives": [
        {
          "attributes": {
            "NORMAL": 6,
            "POSITION": 5,
            "TANGENT": 7,
            "TEXCOORD_0": 8
          },
          "indices": 9,
          "material": 2,
          "mode": 4
        }
      ]
    },
    {
      "name": "defaultMaterial",
      "primitives": [
        {
          "attributes": {
            "NORMAL": 11,
            "POSITION": 10,
            "TANGENT": 12,
            "TEXCOORD_0": 13
          },
          "indices": 14,
          "material": 2,
          "mode": 4
        }
      ]
    },
    {
      "name": "defaultMaterial",
      "primitives": [
        {
          "attributes": {
            "NORMAL": 16,
            "POSITION": 15,
            "TANGENT": 17,
            "TEXCOORD_0": 18
          },
          "indices": 19,
          "material": 2,
          "mode": 4
        }
      ]
    },
    {
      "name": "defaultMaterial",
      "primitives": [
        {
          "attributes": {
            "NORMAL": 21,
            "POSITION": 20,
            "TANGENT": 22,
            "TEXCOORD_0": 23
          },
          "indices": 24,
          "material": 2,
          "mode": 4
        }
      ]
    },
    {
      "name": "defaultMaterial",
      "primitives": [
        {
          "attributes": {
            "NORMAL": 26,
            "POSITION": 25,
            "TANGENT": 27,
            "TEXCOORD_0": 28
          },
          "indices": 29,
          "material": 1,
          "mode": 4
        }
      ]
    },
    {
      "name": "defaultMaterial",
      "primitives": [
        {
          "attributes": {
            "NORMAL": 31,
            "POSITION": 30,
            "TANGENT": 32,
            "TEXCOORD_0": 33
          },
          "indices": 34,
          "material": 0,
          "mode": 4
        }
      ]
    },
    {
      "name": "defaultMaterial",
      "primitives": [
        {
          "attributes": {
            "NORMAL": 36,
            "POSITION": 35,
            "TANGENT": 37,
            "TEXCOORD_0": 38
          },
          "indices": 39,
          "material": 0,
          "mode": 4
        }
      ]
    },
    {
      "name": "defaultMaterial",
      "primitives": [
        {
          "attributes": {
            "NORMAL": 41,
            "POSITION": 40,
            "TANGENT": 42,
            "TEXCOORD_0": 43
          },
          "indices": 44,
          "material": 0,
          "mode": 4
        }
      ]
    },
    {
      "name": "defaultMaterial",
      "primitives": [
        {
          "attributes": {
            "NORMAL": 46,
            "POSITION": 45,
            "TANGENT": 47,
            "TEXCOORD_0": 48
          },
          "indices": 49,
          "material": 0,
          "mode": 4
        }
      ]
    },
    {
      "name": "defaultMaterial",
      "primitives": [
        {
          "attributes": {
            "NORMAL": 51,
            "POSITION": 50,
            "TANGENT": 52,
            "TEXCOORD_0": 53
          },
          "indices": 54,
          "material": 0,
          "mode": 4
        }
      ]
    },
    {
      "name": "defaultMaterial",
      "primitives": [
        {
          "attributes": {
            "NORMAL": 56,
            "POSITION": 55,
            "TANGENT": 57,
            "TEXCOORD_0": 58
          },
          "indices": 59,
          "material": 0,
          "mode": 4
        }
      ]
    },
    {
      "name": "defaultMaterial",
      "primitives": [
        {
          "attributes": {
            "NORMAL": 61,
            "POSITION": 60,
            "TANGENT": 62,
            "TEXCOORD_0": 63
          },
          "indices": 64,
          "material": 0,
          "mode": 4
        }
      ]
    },
    {
      "name": "defaultMaterial",
      "primitives": [
        {
          "attributes": {
            "NORMAL": 66,
            "POSITION": 65,
            "TANGENT": 67,
            "TEXCOORD_0": 68
          },
          "indices": 69,
          "material": 0,
          "mode": 4
        }
      ]
    }
  ],
  "nodes": [
    {
      "children": [
        1
      ],
      "matrix": [
        1.0,
        0.0,
        0.0,
        0.0,
        0.0,
        2.220446049250313e-16,
        -1.0,
        0.0,
        0.0,
        1.0,
        2.220446049250313e-16,
        0.0,
        0.0,
        0.0,
        0.0,
        1.0
      ],
      "name": "Sketchfab_model"
    },
    {
      "children": [
        2,
        4,
        9,
        11,
        13,
        15,
        17,
        19,
        21,
        23,
        25
      ],
      "matrix": [
        1.0,
        0.0,
        0.0,
        0.0,
        0.0,
        -4.371139006309477e-08,
        0.999999999999999,
        0.0,
        0.0,
        -0.999999999999999,
        -4.371139006309477e-08,
        0.0,
        0.0,
        0.0,
        0.0,
        1.0
      ],
      "name": "Collada visual scene group"
    },
    {
      "children": [
        3
      ],
      "name": "StarDestroyer_BaiscHull"
    },
    {
      "mesh": 0,
      "name": "defaultMaterial"
    },
    {
      "children": [
        5,
        6,
        7,
        8
      ],
      "name": "StarDestroyer_FineDetails"
    },
    {
      "mesh": 1,
      "name": "defaultMaterial"
    },
    {
      "mesh": 2,
      "name": "defaultMaterial"
    },
    {
      "mesh": 3,
      "name": "defaultMaterial"
    },
    {
      "mesh": 4,
      "name": "defaultMaterial"
    },
    {
      "children": [
        10
      ],
      "name": "StarDestroyer_BasicDetails"
    },
    {
      "mesh": 5,
      "name": "defaultMaterial"
    },
    {
      "children": [
        12
      ],
      "name": "StarDestroyer_Turbolaser"
    },
    {
      "mesh": 6,
      "name": "defaultMaterial"
    },
    {
      "children": [
        14
      ],
      "name": "StarDestroyer_Turbolaser.001"
    },
    {
      "mesh": 7,
      "name": "defaultMaterial"
    },
    {
      "children": [
        16
      ],
      "name": "StarDestroyer_Turbolaser.002"
    },
    {
      "mesh": 8,
      "name": "defaultMaterial"
    },
    {
      "children": [
        18
      ],
      "name": "StarDestroyer_Turbolaser.003"
    },
    {
      "mesh": 9,
      "name": "defaultMaterial"
    },
    {
      "children": [
        20
      ],
      "name": "StarDestroyer_Turbolaser.004"
    },
    {
      "mesh": 10,
      "name": "defaultMaterial"
    },
    {
      "children": [
        22
      ],
      "name": "StarDestroyer_Turbolaser.005"
    },
    {
      "mesh": 11,
      "name": "defaultMaterial"
    },
    {
      "children": [
        24
      ],
      "name": "StarDestroyer_Turbolaser.006"
    },
    {
      "mesh": 12,
      "name": "defaultMaterial"
    },
    {
      "children": [
        26
      ],
      "name": "StarDestroyer_Turbolaser.007"
    },
    {
      "mesh": 13,
      "name": "defaultMaterial"
    }
  ],
  "samplers": [
    {
      "magFilter": 9729,
      "minFilter": 9987,
      "wrapS": 10497,
      "wrapT": 10497
    }
  ],
  "scene": 0,
  "scenes": [
    {
      "name": "Sketchfab_Scene",
      "nodes": [
        0
      ]
    }
  ],
  "textures": [
    {
      "sampler": 0,
      "source": 0
    },
    {
      "sampler": 0,
      "source": 1
    },
    {
      "sampler": 0,
      "source": 2
    },
    {
      "sampler": 0,
      "source": 3
    },
    {
      "sampler": 0,
      "source": 4
    },
    {
      "sampler": 0,
      "source": 5
    },
    {
      "sampler": 0,
      "source": 6
    },
    {
      "sampler": 0,
      "source": 7
    },
    {
      "sampler": 0,
      "source": 8
    },
    {
      "sampler": 0,
      "source": 9
    },
    {
      "sampler": 0,
      "source": 10
    },
    {
      "sampler": 0,
      "source": 11
    },
    {
      "sampler": 0,
      "source": 12
    },
    {
      "sampler": 0,
      "source": 13
    },
    {
      "sampler": 0,
      "source": 14
    }
  ]
}
