{
  "accessors": [
    {
      "bufferView": 2,
      "componentType": 5126,
      "count": 8444,
      "max": [
        0.5778440237045288,
        0.29695001244544983,
        0.5775650143623352
      ],
      "min": [
        -0.5115560293197632,
        -0.4375619888305664,
        -0.3795520067214966
      ],
      "type": "VEC3"
    },
    {
      "bufferView": 2,
      "byteOffset": 101328,
      "componentType": 5126,
      "count": 8444,
      "max": [
        1.0,
        1.0,
        1.0
      ],
      "min": [
        -1.0,
        -1.0,
        -1.0
      ],
      "type": "VEC3"
    },
    {
      "bufferView": 3,
      "componentType": 5126,
      "count": 8444,
      "max": [
        1.0,
        1.0,
        1.0,
        1.0
      ],
      "min": [
        -1.0,
        -1.0,
        -1.0,
        -1.0
      ],
      "type": "VEC4"
    },
    {
      "bufferView": 1,
      "componentType": 5126,
      "count": 8444,
      "max": [
        0.9975050091743469,
        0.9969769716262817
      ],
      "min": [
        0.0024956499692052603,
        0.002493089996278286
      ],
      "type": "VEC2"
    },
    {
      "bufferView": 1,
      "byteOffset": 67552,
      "componentType": 5126,
      "count": 8444,
      "max": [
        0.0,
        0.0
      ],
      "min": [
        0.0,
        0.0
      ],
      "type": "VEC2"
    },
    {
      "bufferView": 0,
      "componentType": 5125,
      "count": 15897,
      "type": "SCALAR"
    },
    {
      "bufferView": 2,
      "byteOffset": 202656,
      "componentType": 5126,
      "count": 1564,
      "max": [
        0.5845569968223572,
        0.259333997964859,
        0.501114010810852
      ],
      "min": [
        0.06588820368051529,
        -0.259333997964859,
        -0.38540199398994446
      ],
      "type": "VEC3"
    },
    {
      "bufferView": 2,
      "byteOffset": 221424,
      "componentType": 5126,
      "count": 1564,
      "max": [
        1.0,
        1.0,
        1.0
      ],
      "min": [
        -1.0,
        -1.0,
        -1.0
      ],
      "type": "VEC3"
    },
    {
      "bufferView": 3,
      "byteOffset": 135104,
      "componentType": 5126,
      "count": 1564,
      "max": [
        1.0,
        1.0,
        1.0,
        1.0
      ],
      "min": [
        -1.0,
        -1.0,
        -1.0,
        -1.0
      ],
      "type": "VEC4"
    },
    {
      "bufferView": 1,
      "byteOffset": 135104,
      "componentType": 5126,
      "count": 1564,
      "max": [
        0.9912229776382446,
        0.9896050095558167
      ],
      "min": [
        0.0024822799023240805,
        0.0036851600743830204
      ],
      "type": "VEC2"
    },
    {
      "bufferView": 1,
      "byteOffset": 147616,
      "componentType": 5126,
      "count": 1564,
      "max": [
        0.0,
        0.0
      ],
      "min": [
        0.0,
        0.0
      ],
      "type": "VEC2"
    },
    {
      "bufferView": 0,
      "byteOffset": 63588,
      "componentType": 5125,
      "count": 5064,
      "type": "SCALAR"
    },
    {
      "bufferView": 2,
      "byteOffset": 240192,
      "componentType": 5126,
      "count": 2499,
      "max": [
        -0.06588820368051529,
        0.2593350112438202,
        0.6242679953575134
      ],
      "min": [
        -0.5845569968223572,
        -0.259333997964859,
        -0.38540199398994446
      ],
      "type": "VEC3"
    },
    {
      "bufferView": 2,
      "byteOffset": 270180,
      "componentType": 5126,
      "count": 2499,
      "max": [
        1.0,
        1.0,
        1.0
      ],
      "min": [
        -1.0,
        -1.0,
        -1.0
      ],
      "type": "VEC3"
    },
    {
      "bufferView": 3,
      "byteOffset": 160128,
      "componentType": 5126,
      "count": 2499,
      "max": [
        1.0,
        0.9999999403953552,
        1.0,
        1.0
      ],
      "min": [
        -1.0,
        -0.9999999403953552,
        -1.0,
        -1.0
      ],
      "type": "VEC4"
    },
    {
      "bufferView": 1,
      "byteOffset": 160128,
      "componentType": 5126,
      "count": 2499,
      "max": [
        0.9974750280380249,
        0.9495109915733337
      ],
      "min": [
        0.0024995501153171062,
        0.003394699888303876
      ],
      "type": "VEC2"
    },
    {
      "bufferView": 1,
      "byteOffset": 180120,
      "componentType": 5126,
      "count": 2499,
      "max": [
        0.0,
        0.0
      ],
      "min": [
        0.0,
        0.0
      ],
      "type": "VEC2"
    },
    {
      "bufferView": 0,
      "byteOffset": 83844,
      "componentType": 5125,
      "count": 7380,
      "type": "SCALAR"
    },
    {
      "bufferView": 2,
      "byteOffset": 300168,
      "componentType": 5126,
      "count": 4887,
      "max": [
        1.0,
        0.5758240222930908,
        0.9052069783210754
      ],
      "min": [
        0.4809269905090332,
        -0.5758240222930908,
        -0.9052069783210754
      ],
      "type": "VEC3"
    },
    {
      "bufferView": 2,
      "byteOffset": 358812,
      "componentType": 5126,
      "count": 4887,
      "max": [
        1.0,
        1.0,
        1.0
      ],
      "min": [
        -1.0,
        -1.0,
        -1.0
      ],
      "type": "VEC3"
    },
    {
      "bufferView": 3,
      "byteOffset": 200112,
      "componentType": 5126,
      "count": 4887,
      "max": [
        1.0,
        1.0,
        1.0,
        1.0
      ],
      "min": [
        -1.0,
        -1.0,
        -1.0,
        -1.0
      ],
      "type": "VEC4"
    },
    {
      "bufferView": 1,
      "byteOffset": 200112,
      "componentType": 5126,
      "count": 4887,
      "max": [
        0.9974870085716248,
        0.9957640171051025
      ],
      "min": [
        0.0024996099527925253,
        0.0024939998984336853
      ],
      "type": "VEC2"
    },
    {
      "bufferView": 1,
      "byteOffset": 239208,
      "componentType": 5126,
      "count": 4887,
      "max": [
        0.0,
        0.0
      ],
      "min": [
        0.0,
        0.0
      ],
      "type": "VEC2"
    },
    {
      "bufferView": 0,
      "byteOffset": 113364,
      "componentType": 5125,
      "count": 8796,
      "type": "SCALAR"
    },
    {
      "bufferView": 2,
      "byteOffset": 417456,
      "componentType": 5126,
      "count": 4887,
      "max": [
        -0.4809269905090332,
        0.5758240222930908,
        0.9052069783210754
      ],
      "min": [
        -1.0,
        -0.5758240222930908,
        -0.9052069783210754
      ],
      "type": "VEC3"
    },
    {
      "bufferView": 2,
      "byteOffset": 476100,
      "componentType": 5126,
      "count": 4887,
      "max": [
        1.0,
        1.0,
        1.0
      ],
      "min": [
        -1.0,
        -1.0,
        -1.0
      ],
      "type": "VEC3"
    },
    {
      "bufferView": 3,
      "byteOffset": 278304,
      "componentType": 5126,
      "count": 4887,
      "max": [
        1.0,
        1.0,
        1.0,
        1.0
      ],
      "min": [
        -1.0,
        -1.0,
        -1.0,
        -1.0
      ],
      "type": "VEC4"
    },
    {
      "bufferView": 1,
      "byteOffset": 278304,
      "componentType": 5126,
      "count": 4887,
      "max": [
        0.9974870085716248,
        0.9957640171051025
      ],
      "min": [
        0.0024996099527925253,
        0.0024939998984336853
      ],
      "type": "VEC2"
    },
    {
      "bufferView": 1,
      "byteOffset": 317400,
      "componentType": 5126,
      "count": 4887,
      "max": [
        0.0,
        0.0
      ],
      "min": [
        0.0,
        0.0
      ],
      "type": "VEC2"
    },
    {
      "bufferView": 0,
      "byteOffset": 148548,
      "componentType": 5125,
      "count": 8796,
      "type": "SCALAR"
    }
  ],
  "asset": {
    "extras": {
      "author": "LarsH. (https://sketchfab.com/LarsH.)",
      "license": "CC-BY-4.0 (http://creativecommons.org/licenses/by/4.0/)",
      "source": "https://sketchfab.com/3d-models/star-wars-tie-bomber-3a953f309c584e269eda1a40955c04bc",
      "title": "Star Wars Tie Bomber"
    },
    "generator": "Sketchfab-15.40.0",
    "version": "2.0"
  },
  "bufferViews": [
    {
      "buffer": 0,
      "byteLength": 183732,
      "name": "floatBufferViews",
      "target": 34963
    },
    {
      "buffer": 0,
      "byteLength": 356496,
      "byteOffset": 183732,
      "byteStride": 8,
      "name": "floatBufferViews",
      "target": 34962
    },
    {
      "buffer": 0,
      "byteLength": 534744,
      "byteOffset": 540228,
      "byteStride": 12,
      "name": "floatBufferViews",
      "target": 34962
    },
    {
      "buffer": 0,
      "byteLength": 356496,
      "byteOffset": 1074972,
      "byteStride": 16,
      "name": "floatBufferViews",
      "target": 34962
    }
  ],
  "buffers": [
    {
      "byteLength": 1431468,
      "uri": "scene.bin"
    }
  ],
  "images": [
    {
      "uri": "textures/TieFighter_baseColor.jpeg"
    },
    {
      "uri": "textures/TieFighter_metallicRoughness.png"
    },
    {
      "uri": "textures/TieFighter_emissive.jpeg"
    },
    {
      "uri": "textures/TieFighter_normal.jpeg"
    }
  ],
  "materials": [
    {
      "doubleSided": true,
      "emissiveFactor": [
        1.0,
        1.0,
        1.0
      ],
      "emissiveTexture": {
        "index": 2
      },
      "name": "TieFighter",
      "normalTexture": {
        "index": 3
      },
      "pbrMetallicRoughness": {
        "baseColorTexture": {
          "index": 0
        },
        "metallicRoughnessTexture": {
          "index": 1
        }
      }
    }
  ],
  "meshes": [
    {
      "name": "defaultMaterial",
      "primitives": [
        {
          "attributes": {
            "NORMAL": 1,
            "POSITION": 0,
            "TANGENT": 2,
            "TEXCOORD_0": 3,
            "TEXCOORD_1": 4
          },
          "indices": 5,
          "material": 0,
          "mode": 4
        }
      ]
    },
    {
      "name": "defaultMaterial",
      "primitives": [
        {
          "attributes": {
            "NORMAL": 7,
            "POSITION": 6,
            "TANGENT": 8,
            "TEXCOORD_0": 9,
            "TEXCOORD_1": 10
          },
          "indices": 11,
          "material": 0,
          "mode": 4
        }
      ]
    },
    {
      "name": "defaultMaterial",
      "primitives": [
        {
          "attributes": {
            "NORMAL": 13,
            "POSITION": 12,
            "TANGENT": 14,
            "TEXCOORD_0": 15,
            "TEXCOORD_1": 16
          },
          "indices": 17,
          "material": 0,
          "mode": 4
        }
      ]
    },
    {
      "name": "defaultMaterial",
      "primitives": [
        {
          "attributes": {
            "NORMAL": 19,
            "POSITION": 18,
            "TANGENT": 20,
            "TEXCOORD_0": 21,
            "TEXCOORD_1": 22
          },
          "indices": 23,
          "material": 0,
          "mode": 4
        }
      ]
    },
    {
      "name": "defaultMaterial",
      "primitives": [
        {
          "attributes": {
            "NORMAL": 25,
            "POSITION": 24,
            "TANGENT": 26,
            "TEXCOORD_0": 27,
            "TEXCOORD_1": 28
          },
          "indices": 29,
          "material": 0,
          "mode": 4
        }
      ]
    }
  ],
  "nodes": [
    {
      "children": [
        1
      ],
      "matrix": [
        0.4233724772930145,
        0.0,
        0.0,
        0.0,
        0.0,
        9.40075744566592e-17,
        -0.4233724772930145,
        0.0,
        0.0,
        0.4233724772930145,
        9.40075744566592e-17,
        0.0,
        0.0,
        0.0,
        0.0,
        1.0
      ],
      "name": "Sketchfab_model"
    },
    {
      "children": [
        2,
        4,
        6,
        8,
        10
      ],
      "matrix": [
        1.0,
        0.0,
        0.0,
        0.0,
        0.0,
        -4.371139006309477e-08,
        0.999999999999999,
        0.0,
        0.0,
        -0.999999999999999,
        -4.371139006309477e-08,
        0.0,
        0.0,
        0.0,
        0.0,
        1.0
      ],
      "name": "Collada visual scene group"
    },
    {
      "children": [
        3
      ],
      "name": "Details_low"
    },
    {
      "mesh": 0,
      "name": "defaultMaterial"
    },
    {
      "children": [
        5
      ],
      "name": "LeftCylinder_low"
    },
    {
      "mesh": 1,
      "name": "defaultMaterial"
    },
    {
      "children": [
        7
      ],
      "name": "RightCylinder_low"
    },
    {
      "mesh": 2,
      "name": "defaultMaterial"
    },
    {
      "children": [
        9
      ],
      "name": "LeftWing_low"
    },
    {
      "mesh": 3,
      "name": "defaultMaterial"
    },
    {
      "children": [
        11
      ],
      "name": "RightWing_low"
    },
    {
      "mesh": 4,
      "name": "defaultMaterial"
    }
  ],
  "samplers": [
    {
      "magFilter": 9729,
      "minFilter": 9987,
      "wrapS": 10497,
      "wrapT": 10497
    }
  ],
  "scene": 0,
  "scenes": [
    {
      "name": "Sketchfab_Scene",
      "nodes": [
        0
      ]
    }
  ],
  "textures": [
    {
      "sampler": 0,
      "source": 0
    },
    {
      "sampler": 0,
      "source": 1
    },
    {
      "sampler": 0,
      "source": 2
    },
    {
      "sampler": 0,
      "source": 3
    }
  ]
}
