{
  "accessors": [
    {
      "bufferView": 2,
      "componentType": 5126,
      "count": 560,
      "max": [
        8.860350608825684,
        27.73986053466797,
        121.56657409667969
      ],
      "min": [
        -8.445730209350586,
        8.613260269165039,
        2.6616969108581543
      ],
      "type": "VEC3"
    },
    {
      "bufferView": 2,
      "byteOffset": 6720,
      "componentType": 5126,
      "count": 560,
      "max": [
        0.9993966817855835,
        0.994263231754303,
        1.0
      ],
      "min": [
        -0.999760627746582,
        -0.9978006482124329,
        -0.999995231628418
      ],
      "type": "VEC3"
    },
    {
      "bufferView": 3,
      "componentType": 5126,
      "count": 560,
      "max": [
        1.0,
        0.9999744892120361,
        0.9998388886451721,
        1.0
      ],
      "min": [
        -0.9999985694885254,
        -0.9999744892120361,
        -0.9998497366905212,
        -1.0
      ],
      "type": "VEC4"
    },
    {
      "bufferView": 1,
      "componentType": 5126,
      "count": 560,
      "max": [
        0.9468950033187866,
        0.997484028339386
      ],
      "min": [
        0.001272000023163855,
        0.023080000653862953
      ],
      "type": "VEC2"
    },
    {
      "bufferView": 0,
      "componentType": 5125,
      "count": 1194,
      "type": "SCALAR"
    },
    {
      "bufferView": 2,
      "byteOffset": 13440,
      "componentType": 5126,
      "count": 31,
      "max": [
        2.082345485687256,
        27.694265365600586,
        44.885406494140625
      ],
      "min": [
        -1.9570854902267456,
        25.50813865661621,
        40.679569244384766
      ],
      "type": "VEC3"
    },
    {
      "bufferView": 2,
      "byteOffset": 13812,
      "componentType": 5126,
      "count": 31,
      "max": [
        0.8311915397644043,
        1.0,
        0.8311881422996521
      ],
      "min": [
        -0.8311898112297058,
        0.18073828518390656,
        -0.9807292819023132
      ],
      "type": "VEC3"
    },
    {
      "bufferView": 3,
      "byteOffset": 8960,
      "componentType": 5126,
      "count": 31,
      "max": [
        0.9960358142852783,
        0.8314664363861084,
        0.35864511132240295,
        1.0
      ],
      "min": [
        -0.08101991564035416,
        -0.934568464756012,
        -1.0,
        1.0
      ],
      "type": "VEC4"
    },
    {
      "bufferView": 1,
      "byteOffset": 4480,
      "componentType": 5126,
      "count": 31,
      "max": [
        0.7772470116615295,
        0.10003200173377991
      ],
      "min": [
        0.6890580058097839,
        0.0118429996073246
      ],
      "type": "VEC2"
    },
    {
      "bufferView": 0,
      "byteOffset": 4776,
      "componentType": 5125,
      "count": 132,
      "type": "SCALAR"
    },
    {
      "bufferView": 2,
      "byteOffset": 14184,
      "componentType": 5126,
      "count": 399,
      "max": [
        51.73965072631836,
        28.00594139099121,
        90.38796997070313
      ],
      "min": [
        4.621719837188721,
        17.76263999938965,
        0.0
      ],
      "type": "VEC3"
    },
    {
      "bufferView": 2,
      "byteOffset": 18972,
      "componentType": 5126,
      "count": 399,
      "max": [
        1.0,
        1.0,
        0.9736260771751404
      ],
      "min": [
        -1.0,
        -1.0,
        -0.9999945759773254
      ],
      "type": "VEC3"
    },
    {
      "bufferView": 3,
      "byteOffset": 9456,
      "componentType": 5126,
      "count": 399,
      "max": [
        1.0,
        1.0,
        1.0,
        1.0
      ],
      "min": [
        -1.0,
        -1.0,
        -1.0,
        -1.0
      ],
      "type": "VEC4"
    },
    {
      "bufferView": 1,
      "byteOffset": 4728,
      "componentType": 5126,
      "count": 399,
      "max": [
        1.000175952911377,
        0.9935399889945984
      ],
      "min": [
        0.0017369999550282955,
        0.00027600000612437725
      ],
      "type": "VEC2"
    },
    {
      "bufferView": 0,
      "byteOffset": 5304,
      "componentType": 5125,
      "count": 1182,
      "type": "SCALAR"
    },
    {
      "bufferView": 2,
      "byteOffset": 23760,
      "componentType": 5126,
      "count": 408,
      "max": [
        51.73965072631836,
        18.4495906829834,
        90.38796997070313
      ],
      "min": [
        4.621719837188721,
        8.215129852294922,
        0.0
      ],
      "type": "VEC3"
    },
    {
      "bufferView": 2,
      "byteOffset": 28656,
      "componentType": 5126,
      "count": 408,
      "max": [
        1.0,
        1.0,
        0.9736263155937195
      ],
      "min": [
        -1.0,
        -1.0,
        -0.9999946355819702
      ],
      "type": "VEC3"
    },
    {
      "bufferView": 3,
      "byteOffset": 15840,
      "componentType": 5126,
      "count": 408,
      "max": [
        1.0,
        1.0,
        1.0,
        1.0
      ],
      "min": [
        -1.0,
        -1.0,
        -1.0,
        -1.0
      ],
      "type": "VEC4"
    },
    {
      "bufferView": 1,
      "byteOffset": 7920,
      "componentType": 5126,
      "count": 408,
      "max": [
        1.000175952911377,
        0.9935399889945984
      ],
      "min": [
        0.0017369999550282955,
        0.00027600000612437725
      ],
      "type": "VEC2"
    },
    {
      "bufferView": 0,
      "byteOffset": 10032,
      "componentType": 5125,
      "count": 1254,
      "type": "SCALAR"
    },
    {
      "bufferView": 2,
      "byteOffset": 33552,
      "componentType": 5126,
      "count": 390,
      "max": [
        -4.621719837188721,
        28.00594139099121,
        90.38796997070313
      ],
      "min": [
        -51.73965072631836,
        17.76263999938965,
        0.0
      ],
      "type": "VEC3"
    },
    {
      "bufferView": 2,
      "byteOffset": 38232,
      "componentType": 5126,
      "count": 390,
      "max": [
        1.0,
        1.0,
        0.9736260771751404
      ],
      "min": [
        -1.0,
        -1.0,
        -0.9999946355819702
      ],
      "type": "VEC3"
    },
    {
      "bufferView": 3,
      "byteOffset": 22368,
      "componentType": 5126,
      "count": 390,
      "max": [
        1.0,
        1.0,
        1.0,
        1.0
      ],
      "min": [
        -1.0,
        -1.0,
        -1.0,
        -1.0
      ],
      "type": "VEC4"
    },
    {
      "bufferView": 1,
      "byteOffset": 11184,
      "componentType": 5126,
      "count": 390,
      "max": [
        1.000175952911377,
        0.9935399889945984
      ],
      "min": [
        0.0017369999550282955,
        0.00027600000612437725
      ],
      "type": "VEC2"
    },
    {
      "bufferView": 0,
      "byteOffset": 15048,
      "componentType": 5125,
      "count": 1182,
      "type": "SCALAR"
    },
    {
      "bufferView": 2,
      "byteOffset": 42912,
      "componentType": 5126,
      "count": 408,
      "max": [
        -4.621719837188721,
        18.4495906829834,
        90.38796997070313
      ],
      "min": [
        -51.73965072631836,
        8.215129852294922,
        0.0
      ],
      "type": "VEC3"
    },
    {
      "bufferView": 2,
      "byteOffset": 47808,
      "componentType": 5126,
      "count": 408,
      "max": [
        1.0,
        1.0,
        0.973626434803009
      ],
      "min": [
        -1.0,
        -1.0,
        -0.9999946355819702
      ],
      "type": "VEC3"
    },
    {
      "bufferView": 3,
      "byteOffset": 28608,
      "componentType": 5126,
      "count": 408,
      "max": [
        0.9999997019767761,
        1.0,
        1.0,
        1.0
      ],
      "min": [
        -1.0,
        -1.0,
        -1.0,
        -1.0
      ],
      "type": "VEC4"
    },
    {
      "bufferView": 1,
      "byteOffset": 14304,
      "componentType": 5126,
      "count": 408,
      "max": [
        1.000175952911377,
        0.9935399889945984
      ],
      "min": [
        0.0017369999550282955,
        0.00027600000612437725
      ],
      "type": "VEC2"
    },
    {
      "bufferView": 0,
      "byteOffset": 19776,
      "componentType": 5125,
      "count": 1254,
      "type": "SCALAR"
    }
  ],
  "asset": {
    "extras": {
      "author": "greensquadron (https://sketchfab.com/greensquadron)",
      "license": "CC-BY-4.0 (http://creativecommons.org/licenses/by/4.0/)",
      "source": "https://sketchfab.com/3d-models/green-squadron-x-wing-1d06c93a34374dc68b536df9e2449929",
      "title": "Green Squadron X-Wing"
    },
    "generator": "Sketchfab-15.74.0",
    "version": "2.0"
  },
  "bufferViews": [
    {
      "buffer": 0,
      "byteLength": 24792,
      "name": "floatBufferViews",
      "target": 34963
    },
    {
      "buffer": 0,
      "byteLength": 17568,
      "byteOffset": 24792,
      "byteStride": 8,
      "name": "floatBufferViews",
      "target": 34962
    },
    {
      "buffer": 0,
      "byteLength": 52704,
      "byteOffset": 42360,
      "byteStride": 12,
      "name": "floatBufferViews",
      "target": 34962
    },
    {
      "buffer": 0,
      "byteLength": 35136,
      "byteOffset": 95064,
      "byteStride": 16,
      "name": "floatBufferViews",
      "target": 34962
    }
  ],
  "buffers": [
    {
      "byteLength": 130200,
      "uri": "scene.bin"
    }
  ],
  "extensionsRequired": [
    "KHR_materials_pbrSpecularGlossiness"
  ],
  "extensionsUsed": [
    "KHR_materials_pbrSpecularGlossiness",
    "KHR_materials_emissive_strength"
  ],
  "images": [
    {
      "uri": "textures/phong2_diffuse.png"
    },
    {
      "uri": "textures/phong2_emissive.png"
    },
    {
      "uri": "textures/phong2_normal.png"
    }
  ],
  "materials": [
    {
      "emissiveFactor": [
        1.0,
        1.0,
        1.0
      ],
      "emissiveTexture": {
        "index": 1
      },
      "extensions": {
        "KHR_materials_emissive_strength": {
          "emissiveStrength": 2.605722226962977
        },
        "KHR_materials_pbrSpecularGlossiness": {
          "diffuseFactor": [
            1.0,
            1.0,
            1.0,
            1.0
          ],
          "diffuseTexture": {
            "index": 0
          },
          "glossinessFactor": 0.7028562372761518,
          "specularFactor": [
            0.10209554924357864,
            0.10209554924357864,
            0.10209554924357864
          ]
        }
      },
      "name": "phong2",
      "normalTexture": {
        "index": 2
      }
    }
  ],
  "meshes": [
    {
      "name": "MainShip_phong2_0",
      "primitives": [
        {
          "attributes": {
            "NORMAL": 1,
            "POSITION": 0,
            "TANGENT": 2,
            "TEXCOORD_0": 3
          },
          "indices": 4,
          "material": 0,
          "mode": 4
        }
      ]
    },
    {
      "name": "R2D2_phong2_0",
      "primitives": [
        {
          "attributes": {
            "NORMAL": 6,
            "POSITION": 5,
            "TANGENT": 7,
            "TEXCOORD_0": 8
          },
          "indices": 9,
          "material": 0,
          "mode": 4
        }
      ]
    },
    {
      "name": "LeftTopWing_phong2_0",
      "primitives": [
        {
          "attributes": {
            "NORMAL": 11,
            "POSITION": 10,
            "TANGENT": 12,
            "TEXCOORD_0": 13
          },
          "indices": 14,
          "material": 0,
          "mode": 4
        }
      ]
    },
    {
      "name": "LeftBottomWing_phong2_0",
      "primitives": [
        {
          "attributes": {
            "NORMAL": 16,
            "POSITION": 15,
            "TANGENT": 17,
            "TEXCOORD_0": 18
          },
          "indices": 19,
          "material": 0,
          "mode": 4
        }
      ]
    },
    {
      "name": "RightTopWing_phong2_0",
      "primitives": [
        {
          "attributes": {
            "NORMAL": 21,
            "POSITION": 20,
            "TANGENT": 22,
            "TEXCOORD_0": 23
          },
          "indices": 24,
          "material": 0,
          "mode": 4
        }
      ]
    },
    {
      "name": "RightBottomWing_phong2_0",
      "primitives": [
        {
          "attributes": {
            "NORMAL": 26,
            "POSITION": 25,
            "TANGENT": 27,
            "TEXCOORD_0": 28
          },
          "indices": 29,
          "material": 0,
          "mode": 4
        }
      ]
    }
  ],
  "nodes": [
    {
      "children": [
        1
      ],
      "matrix": [
        1.0,
        0.0,
        0.0,
        0.0,
        0.0,
        2.220446049250313e-16,
        -1.0,
        0.0,
        0.0,
        1.0,
        2.220446049250313e-16,
        0.0,
        0.0,
        0.0,
        0.0,
        1.0
      ],
      "name": "Sketchfab_model"
    },
    {
      "children": [
        2
      ],
      "matrix": [
        0.009999999776482582,
        0.0,
        0.0,
        0.0,
        0.0,
        0.0,
        0.009999999776482582,
        0.0,
        0.0,
        -0.009999999776482582,
        0.0,
        0.0,
        0.0,
        0.0,
        0.0,
        1.0
      ],
      "name": "3a47071b60fc4a3fb49c27a5e338bef6.fbx"
    },
    {
      "children": [
        3
      ],
      "name": "RootNode"
    },
    {
      "children": [
        4,
        6,
        8,
        10,
        12,
        14
      ],
      "matrix": [
        1.0,
        0.0,
        0.0,
        0.0,
        0.0,
        1.0,
        0.0,
        0.0,
        0.0,
        0.0,
        1.0,
        0.0,
        0.0,
        -8.215129852294922,
        -60.783287048339844,
        1.0
      ],
      "name": "XWing"
    },
    {
      "children": [
        5
      ],
      "name": "MainShip"
    },
    {
      "mesh": 0,
      "name": "MainShip_phong2_0"
    },
    {
      "children": [
        7
      ],
      "name": "R2D2"
    },
    {
      "mesh": 1,
      "name": "R2D2_phong2_0"
    },
    {
      "children": [
        9
      ],
      "name": "LeftTopWing"
    },
    {
      "mesh": 2,
      "name": "LeftTopWing_phong2_0"
    },
    {
      "children": [
        11
      ],
      "name": "LeftBottomWing"
    },
    {
      "mesh": 3,
      "name": "LeftBottomWing_phong2_0"
    },
    {
      "children": [
        13
      ],
      "name": "RightTopWing"
    },
    {
      "mesh": 4,
      "name": "RightTopWing_phong2_0"
    },
    {
      "children": [
        15
      ],
      "name": "RightBottomWing"
    },
    {
      "mesh": 5,
      "name": "RightBottomWing_phong2_0"
    }
  ],
  "samplers": [
    {
      "magFilter": 9729,
      "minFilter": 9987,
      "wrapS": 10497,
      "wrapT": 10497
    }
  ],
  "scene": 0,
  "scenes": [
    {
      "name": "Sketchfab_Scene",
      "nodes": [
        0
      ]
    }
  ],
  "textures": [
    {
      "sampler": 0,
      "source": 0
    },
    {
      "sampler": 0,
      "source": 1
    },
    {
      "sampler": 0,
      "source": 2
    }
  ]
}
