{
  "accessors": [
    {
      "bufferView": 2,
      "componentType": 5126,
      "count": 2404,
      "max": [
        27.519182205200195,
        37.534507751464844,
        4.111199378967285
      ],
      "min": [
        -27.519189834594727,
        -37.53451156616211,
        -1.922363519668579
      ],
      "type": "VEC3"
    },
    {
      "bufferView": 2,
      "byteOffset": 28848,
      "componentType": 5126,
      "count": 2404,
      "max": [
        1.0,
        1.0,
        1.0
      ],
      "min": [
        -1.0,
        -1.0,
        -1.0
      ],
      "type": "VEC3"
    },
    {
      "bufferView": 1,
      "componentType": 5126,
      "count": 2404,
      "max": [
        0.9054396748542786,
        0.9954138994216919
      ],
      "min": [
        0.0005000000237487257,
        0.0005000000237487257
      ],
      "type": "VEC2"
    },
    {
      "bufferView": 0,
      "componentType": 5125,
      "count": 4848,
      "type": "SCALAR"
    },
    {
      "bufferView": 2,
      "byteOffset": 57696,
      "componentType": 5126,
      "count": 6112,
      "max": [
        23.00371551513672,
        22.877700805664063,
        17.89929962158203
      ],
      "min": [
        -23.003719329833984,
        -22.877700805664063,
        -2.3853633024373266e-07
      ],
      "type": "VEC3"
    },
    {
      "bufferView": 2,
      "byteOffset": 131040,
      "componentType": 5126,
      "count": 6112,
      "max": [
        1.0,
        1.0,
        1.0
      ],
      "min": [
        -1.0,
        -1.0,
        -1.0
      ],
      "type": "VEC3"
    },
    {
      "bufferView": 1,
      "byteOffset": 19232,
      "componentType": 5126,
      "count": 6112,
      "max": [
        0.9985038042068481,
        0.9961703419685364
      ],
      "min": [
        0.0005000000237487257,
        0.0005000000237487257
      ],
      "type": "VEC2"
    },
    {
      "bufferView": 0,
      "byteOffset": 19392,
      "componentType": 5125,
      "count": 21444,
      "type": "SCALAR"
    },
    {
      "bufferView": 2,
      "byteOffset": 204384,
      "componentType": 5126,
      "count": 25647,
      "max": [
        14.148555755615234,
        21.576248168945313,
        21.039915084838867
      ],
      "min": [
        -10.01456069946289,
        -51.33462905883789,
        0.5173282623291016
      ],
      "type": "VEC3"
    },
    {
      "bufferView": 2,
      "byteOffset": 512148,
      "componentType": 5126,
      "count": 25647,
      "max": [
        1.0,
        1.0,
        1.0
      ],
      "min": [
        -1.0,
        -1.0,
        -1.0
      ],
      "type": "VEC3"
    },
    {
      "bufferView": 1,
      "byteOffset": 68128,
      "componentType": 5126,
      "count": 25647,
      "max": [
        0.998474657535553,
        0.999500036239624
      ],
      "min": [
        0.0005000000237487257,
        0.0005000000237487257
      ],
      "type": "VEC2"
    },
    {
      "bufferView": 0,
      "byteOffset": 105168,
      "componentType": 5125,
      "count": 44886,
      "type": "SCALAR"
    },
    {
      "bufferView": 3,
      "componentType": 5126,
      "count": 86,
      "max": [
        2.8333332538604736
      ],
      "min": [
        0.0
      ],
      "type": "SCALAR"
    },
    {
      "bufferView": 4,
      "componentType": 5126,
      "count": 86,
      "max": [
        5.960464477539063e-08,
        8.154395914061752e-08,
        -2.2404017840926826e-07,
        1.0
      ],
      "min": [
        -0.34202009439468384,
        -1.6588081286920948e-22,
        -2.384185791015625e-07,
        0.9396926164627075
      ],
      "type": "VEC4"
    },
    {
      "bufferView": 3,
      "byteOffset": 344,
      "componentType": 5126,
      "count": 51,
      "max": [
        1.6666666269302368
      ],
      "min": [
        0.0
      ],
      "type": "SCALAR"
    },
    {
      "bufferView": 4,
      "byteOffset": 1376,
      "componentType": 5126,
      "count": 51,
      "max": [
        8.857140548514696e-33,
        8.580706154187542e-33,
        1.0,
        1.0
      ],
      "min": [
        -5.384343792417826e-33,
        -1.2350002258496133e-32,
        -0.8509769439697266,
        -0.48653745651245117
      ],
      "type": "VEC4"
    }
  ],
  "animations": [
    {
      "channels": [
        {
          "sampler": 0,
          "target": {
            "node": 9,
            "path": "rotation"
          }
        },
        {
          "sampler": 1,
          "target": {
            "node": 7,
            "path": "rotation"
          }
        }
      ],
      "name": "Take 001",
      "samplers": [
        {
          "input": 12,
          "interpolation": "LINEAR",
          "output": 13
        },
        {
          "input": 14,
          "interpolation": "LINEAR",
          "output": 15
        }
      ]
    }
  ],
  "asset": {
    "extras": {
      "author": "Yudha Mfr (https://sketchfab.com/yudhamfr)",
      "license": "CC-BY-4.0 (http://creativecommons.org/licenses/by/4.0/)",
      "source": "https://sketchfab.com/3d-models/railgun-turret-1b079166156d406d87ee710bbc6a0233",
      "title": "Railgun Turret"
    },
    "generator": "Sketchfab-15.37.0",
    "version": "2.0"
  },
  "bufferViews": [
    {
      "buffer": 0,
      "byteLength": 284712,
      "name": "floatBufferViews",
      "target": 34963
    },
    {
      "buffer": 0,
      "byteLength": 273304,
      "byteOffset": 284712,
      "byteStride": 8,
      "name": "floatBufferViews",
      "target": 34962
    },
    {
      "buffer": 0,
      "byteLength": 819912,
      "byteOffset": 558016,
      "byteStride": 12,
      "name": "floatBufferViews",
      "target": 34962
    },
    {
      "buffer": 0,
      "byteLength": 548,
      "byteOffset": 1377928,
      "name": "floatBufferViews"
    },
    {
      "buffer": 0,
      "byteLength": 2192,
      "byteOffset": 1378476,
      "byteStride": 16,
      "name": "floatBufferViews"
    }
  ],
  "buffers": [
    {
      "byteLength": 1380668,
      "uri": "scene.bin"
    }
  ],
  "images": [
    {
      "uri": "textures/01_-_Default_baseColor.png"
    },
    {
      "uri": "textures/01_-_Default_metallicRoughness.png"
    }
  ],
  "materials": [
    {
      "doubleSided": true,
      "name": "01_-_Default",
      "occlusionTexture": {
        "index": 1
      },
      "pbrMetallicRoughness": {
        "baseColorTexture": {
          "index": 0
        },
        "metallicRoughnessTexture": {
          "index": 1
        }
      }
    }
  ],
  "meshes": [
    {
      "name": "Base_01 - Default_0",
      "primitives": [
        {
          "attributes": {
            "NORMAL": 1,
            "POSITION": 0,
            "TEXCOORD_0": 2
          },
          "indices": 3,
          "material": 0,
          "mode": 4
        }
      ]
    },
    {
      "name": "Base2_01 - Default_0",
      "primitives": [
        {
          "attributes": {
            "NORMAL": 5,
            "POSITION": 4,
            "TEXCOORD_0": 6
          },
          "indices": 7,
          "material": 0,
          "mode": 4
        }
      ]
    },
    {
      "name": "Head_01 - Default_0",
      "primitives": [
        {
          "attributes": {
            "NORMAL": 9,
            "POSITION": 8,
            "TEXCOORD_0": 10
          },
          "indices": 11,
          "material": 0,
          "mode": 4
        }
      ]
    }
  ],
  "nodes": [
    {
      "children": [
        1
      ],
      "matrix": [
        1.0,
        0.0,
        0.0,
        0.0,
        0.0,
        2.220446049250313e-16,
        -1.0,
        0.0,
        0.0,
        1.0,
        2.220446049250313e-16,
        0.0,
        0.0,
        0.0,
        0.0,
        1.0
      ],
      "name": "Sketchfab_model"
    },
    {
      "children": [
        2
      ],
      "matrix": [
        0.02539999969303608,
        0.0,
        0.0,
        0.0,
        0.0,
        0.0,
        0.02539999969303608,
        0.0,
        0.0,
        -0.02539999969303608,
        0.0,
        0.0,
        0.0,
        0.0,
        0.0,
        1.0
      ],
      "name": "29c3b24af53341ed9b31713c56d99359.fbx"
    },
    {
      "children": [
        3
      ],
      "name": "Object_2"
    },
    {
      "children": [
        4
      ],
      "name": "RootNode"
    },
    {
      "children": [
        5,
        7
      ],
      "name": "Base",
      "rotation": [
        -0.7071068286895752,
        1.236344928656763e-07,
        1.236344928656763e-07,
        0.7071068286895752
      ]
    },
    {
      "children": [
        6
      ],
      "matrix": [
        1.0,
        0.0,
        -0.0,
        0.0,
        0.0,
        1.0,
        0.0,
        0.0,
        0.0,
        0.0,
        1.0,
        0.0,
        2.0669968128204346,
        -1.7417676448822021,
        0.8153553009033203,
        1.0
      ],
      "name": "Object_5"
    },
    {
      "mesh": 0,
      "name": "Base_01 - Default_0"
    },
    {
      "children": [
        8,
        9
      ],
      "name": "Base2",
      "rotation": [
        -2.350988701644575e-38,
        -2.2420775429197073e-44,
        1.0,
        -9.655991561885457e-07
      ],
      "translation": [
        2.0669965744018555,
        -1.7417676448822021,
        0.8153553009033203
      ]
    },
    {
      "mesh": 1,
      "name": "Base2_01 - Default_0"
    },
    {
      "children": [
        10
      ],
      "name": "Head",
      "rotation": [
        -0.3007057309150696,
        7.16938473033224e-08,
        -2.2738383620435343e-07,
        0.9537169933319092
      ],
      "translation": [
        -2.0669984817504883,
        1.741767406463623,
        12.19052505493164
      ]
    },
    {
      "children": [
        11
      ],
      "matrix": [
        1.0,
        0.0,
        -0.0,
        0.0,
        0.0,
        1.0,
        0.0,
        0.0,
        0.0,
        0.0,
        1.0,
        0.0,
        1.9073486328125e-06,
        2.384185791015625e-07,
        -5.558200359344482,
        1.0
      ],
      "name": "Object_10"
    },
    {
      "mesh": 2,
      "name": "Head_01 - Default_0"
    }
  ],
  "samplers": [
    {
      "magFilter": 9729,
      "minFilter": 9987,
      "wrapS": 10497,
      "wrapT": 10497
    }
  ],
  "scene": 0,
  "scenes": [
    {
      "name": "Sketchfab_Scene",
      "nodes": [
        0
      ]
    }
  ],
  "textures": [
    {
      "sampler": 0,
      "source": 0
    },
    {
      "sampler": 0,
      "source": 1
    }
  ]
}
