{
  "accessors": [
    {
      "bufferView": 2,
      "componentType": 5126,
      "count": 12,
      "max": [
        0.2639639973640442,
        -0.4227229952812195,
        0.30022600293159485
      ],
      "min": [
        0.2573949992656708,
        -0.42814600467681885,
        0.29651200771331787
      ],
      "type": "VEC3"
    },
    {
      "bufferView": 1,
      "componentType": 5126,
      "count": 12,
      "max": [
        0.0,
        0.0
      ],
      "min": [
        0.0,
        0.0
      ],
      "type": "VEC2"
    },
    {
      "bufferView": 0,
      "componentType": 5125,
      "count": 24,
      "type": "SCALAR"
    },
    {
      "bufferView": 2,
      "byteOffset": 144,
      "componentType": 5126,
      "count": 300,
      "max": [
        0.3857620060443878,
        0.2903989851474762,
        0.31436899304389954
      ],
      "min": [
        -0.29422399401664734,
        -0.26941099762916565,
        -0.11525700241327286
      ],
      "type": "VEC3"
    },
    {
      "bufferView": 2,
      "byteOffset": 3744,
      "componentType": 5126,
      "count": 300,
      "max": [
        0.9960168600082397,
        0.9974443316459656,
        0.9977763295173645
      ],
      "min": [
        -0.9960168600082397,
        -0.9972726702690125,
        -0.9734980463981628
      ],
      "type": "VEC3"
    },
    {
      "bufferView": 1,
      "byteOffset": 96,
      "componentType": 5126,
      "count": 300,
      "max": [
        0.9083229899406433,
        0.4447470009326935
      ],
      "min": [
        0.07315000146627426,
        0.02471099980175495
      ],
      "type": "VEC2"
    },
    {
      "bufferView": 0,
      "byteOffset": 96,
      "componentType": 5125,
      "count": 516,
      "type": "SCALAR"
    },
    {
      "bufferView": 2,
      "byteOffset": 7344,
      "componentType": 5126,
      "count": 46452,
      "max": [
        0.42546600103378296,
        0.30175700783729553,
        0.6872149705886841
      ],
      "min": [
        -0.42546600103378296,
        -0.46281901001930237,
        -0.5430099964141846
      ],
      "type": "VEC3"
    },
    {
      "bufferView": 2,
      "byteOffset": 564768,
      "componentType": 5126,
      "count": 46452,
      "max": [
        1.0,
        1.0,
        1.0
      ],
      "min": [
        -1.0,
        -1.0,
        -1.0
      ],
      "type": "VEC3"
    },
    {
      "bufferView": 1,
      "byteOffset": 2496,
      "componentType": 5126,
      "count": 46452,
      "max": [
        0.9892370104789734,
        0.9891290068626404
      ],
      "min": [
        0.040001001209020615,
        0.01525100041180849
      ],
      "type": "VEC2"
    },
    {
      "bufferView": 0,
      "byteOffset": 2160,
      "componentType": 5125,
      "count": 135552,
      "type": "SCALAR"
    },
    {
      "bufferView": 2,
      "byteOffset": 1122192,
      "componentType": 5126,
      "count": 26,
      "max": [
        0.4210909903049469,
        0.2583119869232178,
        0.6872149705886841
      ],
      "min": [
        -0.4210909903049469,
        -0.43250998854637146,
        0.38572901487350464
      ],
      "type": "VEC3"
    },
    {
      "bufferView": 2,
      "byteOffset": 1122504,
      "componentType": 5126,
      "count": 26,
      "max": [
        0.9508665800094604,
        0.5184882879257202,
        -0.24919748306274414
      ],
      "min": [
        -0.9508903622627258,
        -0.09799837321043015,
        -0.9059352278709412
      ],
      "type": "VEC3"
    },
    {
      "bufferView": 1,
      "byteOffset": 374112,
      "componentType": 5126,
      "count": 26,
      "max": [
        1.0,
        0.9597240090370178
      ],
      "min": [
        -0.0,
        -0.0
      ],
      "type": "VEC2"
    },
    {
      "bufferView": 0,
      "byteOffset": 544368,
      "componentType": 5125,
      "count": 60,
      "type": "SCALAR"
    }
  ],
  "asset": {
    "extras": {
      "author": "MichaelEGA (https://sketchfab.com/MichaelEGA)",
      "license": "CC-BY-4.0 (http://creativecommons.org/licenses/by/4.0/)",
      "source": "https://sketchfab.com/3d-models/y-wing-cockpit-version-3-a88ce8c33299486d903f64c2544d62fb",
      "title": "Y-Wing Cockpit Version 3"
    },
    "generator": "Sketchfab-16.75.0",
    "version": "2.0"
  },
  "bufferViews": [
    {
      "buffer": 0,
      "byteLength": 544608,
      "name": "floatBufferViews",
      "target": 34963
    },
    {
      "buffer": 0,
      "byteLength": 374320,
      "byteOffset": 544608,
      "byteStride": 8,
      "name": "floatBufferViews",
      "target": 34962
    },
    {
      "buffer": 0,
      "byteLength": 1122816,
      "byteOffset": 918928,
      "byteStride": 12,
      "name": "floatBufferViews",
      "target": 34962
    }
  ],
  "buffers": [
    {
      "byteLength": 2041744,
      "uri": "scene.bin"
    }
  ],
  "images": [
    {
      "uri": "textures/cockpit_baseColor.png"
    },
    {
      "uri": "textures/cockpit_metallicRoughness.png"
    },
    {
      "uri": "textures/cockpit_emissive.png"
    },
    {
      "uri": "textures/windows_baseColor.jpeg"
    }
  ],
  "materials": [
    {
      "doubleSided": true,
      "emissiveFactor": [
        1.0,
        1.0,
        1.0
      ],
      "emissiveTexture": {
        "index": 2
      },
      "name": "cockpit",
      "pbrMetallicRoughness": {
        "baseColorTexture": {
          "index": 0
        },
        "metallicRoughnessTexture": {
          "index": 1
        },
        "roughnessFactor": 0.6
      }
    },
    {
      "alphaMode": "BLEND",
      "doubleSided": true,
      "name": "windows",
      "pbrMetallicRoughness": {
        "baseColorFactor": [
          1.0,
          1.0,
          1.0,
          0.4794640990886974
        ],
        "baseColorTexture": {
          "index": 3
        },
        "roughnessFactor": 0.6
      }
    }
  ],
  "meshes": [
    {
      "name": "Object_0",
      "primitives": [
        {
          "attributes": {
            "POSITION": 0,
            "TEXCOORD_0": 1
          },
          "indices": 2,
          "material": 0,
          "mode": 1
        }
      ]
    },
    {
      "name": "Object_1",
      "primitives": [
        {
          "attributes": {
            "NORMAL": 4,
            "POSITION": 3,
            "TEXCOORD_0": 5
          },
          "indices": 6,
          "material": 0,
          "mode": 4
        }
      ]
    },
    {
      "name": "Object_2",
      "primitives": [
        {
          "attributes": {
            "NORMAL": 8,
            "POSITION": 7,
            "TEXCOORD_0": 9
          },
          "indices": 10,
          "material": 0,
          "mode": 4
        }
      ]
    },
    {
      "name": "Object_3",
      "primitives": [
        {
          "attributes": {
            "NORMAL": 12,
            "POSITION": 11,
            "TEXCOORD_0": 13
          },
          "indices": 14,
          "material": 1,
          "mode": 4
        }
      ]
    }
  ],
  "nodes": [
    {
      "children": [
        1
      ],
      "matrix": [
        1.0,
        0.0,
        0.0,
        0.0,
        0.0,
        2.220446049250313e-16,
        -1.0,
        0.0,
        0.0,
        1.0,
        2.220446049250313e-16,
        0.0,
        0.0,
        0.0,
        0.0,
        1.0
      ],
      "name": "Sketchfab_model"
    },
    {
      "children": [
        2,
        3,
        4,
        5
      ],
      "name": "ywing_cockpit.obj.cleaner.materialmerger.gles"
    },
    {
      "mesh": 0,
      "name": "Object_2"
    },
    {
      "mesh": 1,
      "name": "Object_3"
    },
    {
      "mesh": 2,
      "name": "Object_4"
    },
    {
      "mesh": 3,
      "name": "Object_5"
    }
  ],
  "samplers": [
    {
      "magFilter": 9729,
      "minFilter": 9987,
      "wrapS": 10497,
      "wrapT": 10497
    }
  ],
  "scene": 0,
  "scenes": [
    {
      "name": "Sketchfab_Scene",
      "nodes": [
        0
      ]
    }
  ],
  "textures": [
    {
      "sampler": 0,
      "source": 0
    },
    {
      "sampler": 0,
      "source": 1
    },
    {
      "sampler": 0,
      "source": 2
    },
    {
      "sampler": 0,
      "source": 3
    }
  ]
}
