{
  "accessors": [
    {
      "bufferView": 2,
      "componentType": 5126,
      "count": 1424,
      "max": [
        0.9299129247665405,
        0.9063717126846313,
        0.9334182143211365
      ],
      "min": [
        -0.9299129247665405,
        0.8569328784942627,
        -0.6666237711906433
      ],
      "type": "VEC3"
    },
    {
      "bufferView": 2,
      "byteOffset": 17088,
      "componentType": 5126,
      "count": 1424,
      "max": [
        0.9999823570251465,
        0.8157249093055725,
        1.0
      ],
      "min": [
        -0.9999823570251465,
        -0.8157244324684143,
        -1.0
      ],
      "type": "VEC3"
    },
    {
      "bufferView": 1,
      "componentType": 5126,
      "count": 1424,
      "max": [
        1.0000004768371582,
        0.9944522976875305
      ],
      "min": [
        7.977863702990362e-08,
        -1.1087667672882162e-08
      ],
      "type": "VEC2"
    },
    {
      "bufferView": 0,
      "componentType": 5125,
      "count": 3654,
      "type": "SCALAR"
    },
    {
      "bufferView": 2,
      "byteOffset": 34176,
      "componentType": 5126,
      "count": 1834,
      "max": [
        1.2760000228881836,
        0.5115548372268677,
        0.917590856552124
      ],
      "min": [
        -1.2760000228881836,
        -0.5115547776222229,
        -0.43642953038215637
      ],
      "type": "VEC3"
    },
    {
      "bufferView": 2,
      "byteOffset": 56184,
      "componentType": 5126,
      "count": 1834,
      "max": [
        1.0,
        1.0,
        1.0
      ],
      "min": [
        -1.0,
        -1.0,
        -1.0
      ],
      "type": "VEC3"
    },
    {
      "bufferView": 1,
      "byteOffset": 11392,
      "componentType": 5126,
      "count": 1834,
      "max": [
        0.9999998211860657,
        0.9650705456733704
      ],
      "min": [
        7.801279622299262e-09,
        -8.809405471765785e-08
      ],
      "type": "VEC2"
    },
    {
      "bufferView": 0,
      "byteOffset": 14616,
      "componentType": 5125,
      "count": 4752,
      "type": "SCALAR"
    },
    {
      "bufferView": 2,
      "byteOffset": 78192,
      "componentType": 5126,
      "count": 2251,
      "max": [
        0.881801426410675,
        0.9046102166175842,
        0.8717697262763977
      ],
      "min": [
        -0.8733850717544556,
        0.8886092305183411,
        -0.873416543006897
      ],
      "type": "VEC3"
    },
    {
      "bufferView": 2,
      "byteOffset": 105204,
      "componentType": 5126,
      "count": 2251,
      "max": [
        1.0,
        1.0,
        1.0
      ],
      "min": [
        -1.0,
        -1.0,
        -1.0
      ],
      "type": "VEC3"
    },
    {
      "bufferView": 1,
      "byteOffset": 26064,
      "componentType": 5126,
      "count": 2251,
      "max": [
        1.0,
        0.9944692850112915
      ],
      "min": [
        0.0,
        -5.590877094618918e-08
      ],
      "type": "VEC2"
    },
    {
      "bufferView": 1,
      "byteOffset": 44072,
      "componentType": 5126,
      "count": 2251,
      "max": [
        0.0,
        0.0
      ],
      "min": [
        0.0,
        0.0
      ],
      "type": "VEC2"
    },
    {
      "bufferView": 0,
      "byteOffset": 33624,
      "componentType": 5125,
      "count": 4977,
      "type": "SCALAR"
    },
    {
      "bufferView": 2,
      "byteOffset": 132216,
      "componentType": 5126,
      "count": 1714,
      "max": [
        0.9075413346290588,
        0.9731728434562683,
        0.9078506231307983
      ],
      "min": [
        -0.9075413346290588,
        0.905177116394043,
        -0.9078506231307983
      ],
      "type": "VEC3"
    },
    {
      "bufferView": 2,
      "byteOffset": 152784,
      "componentType": 5126,
      "count": 1714,
      "max": [
        0.9999998807907104,
        0.9996132254600525,
        0.9996507167816162
      ],
      "min": [
        -1.0,
        -0.9996172189712524,
        -0.9996507167816162
      ],
      "type": "VEC3"
    },
    {
      "bufferView": 1,
      "byteOffset": 62080,
      "componentType": 5126,
      "count": 1714,
      "max": [
        1.0,
        0.9628711938858032
      ],
      "min": [
        0.0,
        1.0203279998677317e-08
      ],
      "type": "VEC2"
    },
    {
      "bufferView": 1,
      "byteOffset": 75792,
      "componentType": 5126,
      "count": 1714,
      "max": [
        0.0,
        0.0
      ],
      "min": [
        0.0,
        0.0
      ],
      "type": "VEC2"
    },
    {
      "bufferView": 0,
      "byteOffset": 53532,
      "componentType": 5125,
      "count": 6684,
      "type": "SCALAR"
    },
    {
      "bufferView": 2,
      "byteOffset": 173352,
      "componentType": 5126,
      "count": 1666,
      "max": [
        0.7727617025375366,
        1.1147116422653198,
        0.7666277885437012
      ],
      "min": [
        -0.7727617025375366,
        0.9248833060264587,
        -0.7666277885437012
      ],
      "type": "VEC3"
    },
    {
      "bufferView": 2,
      "byteOffset": 193344,
      "componentType": 5126,
      "count": 1666,
      "max": [
        1.0,
        0.9995937943458557,
        1.0
      ],
      "min": [
        -1.0,
        -0.9998857975006104,
        -1.0
      ],
      "type": "VEC3"
    },
    {
      "bufferView": 1,
      "byteOffset": 89504,
      "componentType": 5126,
      "count": 1666,
      "max": [
        1.0000001192092896,
        0.8776746988296509
      ],
      "min": [
        -2.5889212551533092e-08,
        -6.7967613759378764e-09
      ],
      "type": "VEC2"
    },
    {
      "bufferView": 1,
      "byteOffset": 102832,
      "componentType": 5126,
      "count": 1666,
      "max": [
        0.0,
        0.0
      ],
      "min": [
        0.0,
        0.0
      ],
      "type": "VEC2"
    },
    {
      "bufferView": 0,
      "byteOffset": 80268,
      "componentType": 5125,
      "count": 4368,
      "type": "SCALAR"
    },
    {
      "bufferView": 2,
      "byteOffset": 213336,
      "componentType": 5126,
      "count": 248,
      "max": [
        0.28628990054130554,
        1.079715371131897,
        0.28277021646499634
      ],
      "min": [
        -0.28628990054130554,
        1.0633316040039063,
        -0.28277021646499634
      ],
      "type": "VEC3"
    },
    {
      "bufferView": 2,
      "byteOffset": 216312,
      "componentType": 5126,
      "count": 248,
      "max": [
        0.9550307393074036,
        0.5037245154380798,
        0.9636884331703186
      ],
      "min": [
        -0.9550307393074036,
        -0.999790370464325,
        -0.9636884331703186
      ],
      "type": "VEC3"
    },
    {
      "bufferView": 1,
      "byteOffset": 116160,
      "componentType": 5126,
      "count": 248,
      "max": [
        0.9856101870536804,
        0.9999983310699463
      ],
      "min": [
        -1.2925513601658167e-06,
        -2.678417558854562e-07
      ],
      "type": "VEC2"
    },
    {
      "bufferView": 1,
      "byteOffset": 118144,
      "componentType": 5126,
      "count": 248,
      "max": [
        0.0,
        0.0
      ],
      "min": [
        0.0,
        0.0
      ],
      "type": "VEC2"
    },
    {
      "bufferView": 0,
      "byteOffset": 97740,
      "componentType": 5125,
      "count": 720,
      "type": "SCALAR"
    },
    {
      "bufferView": 2,
      "byteOffset": 219288,
      "componentType": 5126,
      "count": 144,
      "max": [
        0.2667219638824463,
        1.0856088399887085,
        0.2634141147136688
      ],
      "min": [
        -0.2667219638824463,
        1.0803662538528442,
        -0.2634141147136688
      ],
      "type": "VEC3"
    },
    {
      "bufferView": 2,
      "byteOffset": 221016,
      "componentType": 5126,
      "count": 144,
      "max": [
        1.0,
        0.9992877840995789,
        1.0
      ],
      "min": [
        -1.0,
        -0.9993541836738586,
        -1.0
      ],
      "type": "VEC3"
    },
    {
      "bufferView": 1,
      "byteOffset": 120128,
      "componentType": 5126,
      "count": 144,
      "max": [
        1.0,
        0.9895426630973816
      ],
      "min": [
        1.4419251570529923e-08,
        -5.685889092887919e-09
      ],
      "type": "VEC2"
    },
    {
      "bufferView": 1,
      "byteOffset": 121280,
      "componentType": 5126,
      "count": 144,
      "max": [
        0.0,
        0.0
      ],
      "min": [
        0.0,
        0.0
      ],
      "type": "VEC2"
    },
    {
      "bufferView": 0,
      "byteOffset": 100620,
      "componentType": 5125,
      "count": 384,
      "type": "SCALAR"
    },
    {
      "bufferView": 2,
      "byteOffset": 222744,
      "componentType": 5126,
      "count": 32,
      "max": [
        0.6955658793449402,
        1.0856088399887085,
        0.6938297748565674
      ],
      "min": [
        -0.6955658793449402,
        0.9342430233955383,
        -0.6938297748565674
      ],
      "type": "VEC3"
    },
    {
      "bufferView": 2,
      "byteOffset": 223128,
      "componentType": 5126,
      "count": 32,
      "max": [
        0.28641295433044434,
        -0.9505916237831116,
        0.28705254197120667
      ],
      "min": [
        -0.28641295433044434,
        -0.9508058428764343,
        -0.28705254197120667
      ],
      "type": "VEC3"
    },
    {
      "bufferView": 1,
      "byteOffset": 122432,
      "componentType": 5126,
      "count": 32,
      "max": [
        0.36858829855918884,
        1.0
      ],
      "min": [
        1.6084289455875478e-10,
        -1.7345720948469534e-07
      ],
      "type": "VEC2"
    },
    {
      "bufferView": 1,
      "byteOffset": 122688,
      "componentType": 5126,
      "count": 32,
      "max": [
        0.0,
        0.0
      ],
      "min": [
        0.0,
        0.0
      ],
      "type": "VEC2"
    },
    {
      "bufferView": 0,
      "byteOffset": 102156,
      "componentType": 5125,
      "count": 48,
      "type": "SCALAR"
    },
    {
      "bufferView": 2,
      "byteOffset": 223512,
      "componentType": 5126,
      "count": 4942,
      "max": [
        0.19190002977848053,
        0.8645325899124146,
        -0.08016783744096756
      ],
      "min": [
        -0.19190002977848053,
        0.45889419317245483,
        -0.908781111240387
      ],
      "type": "VEC3"
    },
    {
      "bufferView": 2,
      "byteOffset": 282816,
      "componentType": 5126,
      "count": 4942,
      "max": [
        1.0,
        1.0,
        1.0
      ],
      "min": [
        -1.0,
        -1.0,
        -1.0
      ],
      "type": "VEC3"
    },
    {
      "bufferView": 1,
      "byteOffset": 122944,
      "componentType": 5126,
      "count": 4942,
      "max": [
        0.6762298345565796,
        1.0
      ],
      "min": [
        -8.396822437362061e-08,
        -1.4824331096008336e-08
      ],
      "type": "VEC2"
    },
    {
      "bufferView": 1,
      "byteOffset": 162480,
      "componentType": 5126,
      "count": 4942,
      "max": [
        0.0,
        0.0
      ],
      "min": [
        0.0,
        0.0
      ],
      "type": "VEC2"
    },
    {
      "bufferView": 1,
      "byteOffset": 202016,
      "componentType": 5126,
      "count": 4942,
      "max": [
        1.0000001192092896,
        0.9999998211860657
      ],
      "min": [
        -3.866865228019378e-08,
        -2.2007856159689254e-07
      ],
      "type": "VEC2"
    },
    {
      "bufferView": 0,
      "byteOffset": 102348,
      "componentType": 5125,
      "count": 13938,
      "type": "SCALAR"
    },
    {
      "bufferView": 2,
      "byteOffset": 342120,
      "componentType": 5126,
      "count": 7517,
      "max": [
        0.24040432274341583,
        0.6846169233322144,
        -0.1691572666168213
      ],
      "min": [
        -0.24040432274341583,
        0.5927151441574097,
        -0.5561611652374268
      ],
      "type": "VEC3"
    },
    {
      "bufferView": 2,
      "byteOffset": 432324,
      "componentType": 5126,
      "count": 7517,
      "max": [
        1.0,
        1.0,
        1.0
      ],
      "min": [
        -1.0,
        -1.0,
        -1.0
      ],
      "type": "VEC3"
    },
    {
      "bufferView": 1,
      "byteOffset": 241552,
      "componentType": 5126,
      "count": 7517,
      "max": [
        0.9993722438812256,
        1.0
      ],
      "min": [
        0.0,
        -6.026358079225247e-08
      ],
      "type": "VEC2"
    },
    {
      "bufferView": 1,
      "byteOffset": 301688,
      "componentType": 5126,
      "count": 7517,
      "max": [
        1.0,
        0.9169695973396301
      ],
      "min": [
        -1.4316454155505198e-07,
        -8.064901635407296e-09
      ],
      "type": "VEC2"
    },
    {
      "bufferView": 1,
      "byteOffset": 361824,
      "componentType": 5126,
      "count": 7517,
      "max": [
        0.0,
        0.0
      ],
      "min": [
        0.0,
        0.0
      ],
      "type": "VEC2"
    },
    {
      "bufferView": 0,
      "byteOffset": 158100,
      "componentType": 5125,
      "count": 23880,
      "type": "SCALAR"
    },
    {
      "bufferView": 2,
      "byteOffset": 522528,
      "componentType": 5126,
      "count": 8368,
      "max": [
        0.35343918204307556,
        0.6646066904067993,
        -0.07246768474578857
      ],
      "min": [
        -0.35343918204307556,
        0.4548342823982239,
        -0.9087827205657959
      ],
      "type": "VEC3"
    },
    {
      "bufferView": 2,
      "byteOffset": 622944,
      "componentType": 5126,
      "count": 8368,
      "max": [
        1.0,
        1.0,
        0.9999997615814209
      ],
      "min": [
        -1.0,
        -1.0,
        -0.9999983310699463
      ],
      "type": "VEC3"
    },
    {
      "bufferView": 1,
      "byteOffset": 421960,
      "componentType": 5126,
      "count": 8368,
      "max": [
        0.9424089789390564,
        1.0
      ],
      "min": [
        -1.2428841955625103e-07,
        -1.230519419692655e-08
      ],
      "type": "VEC2"
    },
    {
      "bufferView": 1,
      "byteOffset": 488904,
      "componentType": 5126,
      "count": 8368,
      "max": [
        0.9903618097305298,
        1.000001072883606
      ],
      "min": [
        -1.2120043493268895e-06,
        -8.579116865803371e-07
      ],
      "type": "VEC2"
    },
    {
      "bufferView": 1,
      "byteOffset": 555848,
      "componentType": 5126,
      "count": 8368,
      "max": [
        0.0,
        0.0
      ],
      "min": [
        0.0,
        0.0
      ],
      "type": "VEC2"
    },
    {
      "bufferView": 0,
      "byteOffset": 253620,
      "componentType": 5125,
      "count": 25806,
      "type": "SCALAR"
    },
    {
      "bufferView": 2,
      "byteOffset": 723360,
      "componentType": 5126,
      "count": 21057,
      "max": [
        0.29889005422592163,
        0.647652804851532,
        -0.06377451121807098
      ],
      "min": [
        -0.29889005422592163,
        0.5592236518859863,
        -0.891838788986206
      ],
      "type": "VEC3"
    },
    {
      "bufferView": 2,
      "byteOffset": 976044,
      "componentType": 5126,
      "count": 21057,
      "max": [
        0.9999793767929077,
        1.0,
        0.9999986886978149
      ],
      "min": [
        -0.9999793767929077,
        -1.0,
        -1.0
      ],
      "type": "VEC3"
    },
    {
      "bufferView": 1,
      "byteOffset": 622792,
      "componentType": 5126,
      "count": 21057,
      "max": [
        0.9762636423110962,
        1.0000001192092896
      ],
      "min": [
        -5.3814446232536284e-08,
        -3.0280801865956164e-08
      ],
      "type": "VEC2"
    },
    {
      "bufferView": 0,
      "byteOffset": 356844,
      "componentType": 5125,
      "count": 53496,
      "type": "SCALAR"
    },
    {
      "bufferView": 2,
      "byteOffset": 1228728,
      "componentType": 5126,
      "count": 10,
      "max": [
        0.9354142546653748,
        0.9067371487617493,
        -0.9067149758338928
      ],
      "min": [
        -0.9354142546653748,
        -0.906724750995636,
        -0.9076944589614868
      ],
      "type": "VEC3"
    },
    {
      "bufferView": 2,
      "byteOffset": 1228848,
      "componentType": 5126,
      "count": 10,
      "max": [
        0.0008146471809595823,
        0.0023538803216069937,
        1.0
      ],
      "min": [
        -6.221895318958559e-07,
        -0.0009251353330910206,
        0.9999972581863403
      ],
      "type": "VEC3"
    },
    {
      "bufferView": 1,
      "byteOffset": 791248,
      "componentType": 5126,
      "count": 10,
      "max": [
        0.838424026966095,
        1.0
      ],
      "min": [
        -1.571073582340432e-08,
        -1.9693846553536787e-08
      ],
      "type": "VEC2"
    },
    {
      "bufferView": 1,
      "byteOffset": 791328,
      "componentType": 5126,
      "count": 10,
      "max": [
        0.0,
        0.0
      ],
      "min": [
        0.0,
        0.0
      ],
      "type": "VEC2"
    },
    {
      "bufferView": 0,
      "byteOffset": 570828,
      "componentType": 5125,
      "count": 30,
      "type": "SCALAR"
    },
    {
      "bufferView": 2,
      "byteOffset": 1228968,
      "componentType": 5126,
      "count": 249,
      "max": [
        0.762422502040863,
        0.761024534702301,
        1.2895368337631226
      ],
      "min": [
        -0.7626102566719055,
        -0.7639983296394348,
        1.1300595998764038
      ],
      "type": "VEC3"
    },
    {
      "bufferView": 2,
      "byteOffset": 1231956,
      "componentType": 5126,
      "count": 249,
      "max": [
        0.9893798232078552,
        0.9548569321632385,
        0.18481780588626862
      ],
      "min": [
        -0.9893797039985657,
        -0.9932097792625427,
        -0.9999938011169434
      ],
      "type": "VEC3"
    },
    {
      "bufferView": 1,
      "byteOffset": 791408,
      "componentType": 5126,
      "count": 249,
      "max": [
        0.9836390614509583,
        0.9999999403953552
      ],
      "min": [
        0.0,
        0.0
      ],
      "type": "VEC2"
    },
    {
      "bufferView": 1,
      "byteOffset": 793400,
      "componentType": 5126,
      "count": 249,
      "max": [
        0.0,
        0.0
      ],
      "min": [
        0.0,
        0.0
      ],
      "type": "VEC2"
    },
    {
      "bufferView": 0,
      "byteOffset": 570948,
      "componentType": 5125,
      "count": 792,
      "type": "SCALAR"
    },
    {
      "bufferView": 2,
      "byteOffset": 1234944,
      "componentType": 5126,
      "count": 1424,
      "max": [
        1.2824054956436157,
        0.9055532217025757,
        1.1354612112045288
      ],
      "min": [
        -1.2824054956436157,
        -1.3067240715026855,
        -0.9076944589614868
      ],
      "type": "VEC3"
    },
    {
      "bufferView": 2,
      "byteOffset": 1252032,
      "componentType": 5126,
      "count": 1424,
      "max": [
        0.9999997615814209,
        1.0,
        0.9238992929458618
      ],
      "min": [
        -0.9999997615814209,
        -0.9999938011169434,
        -0.9238994717597961
      ],
      "type": "VEC3"
    },
    {
      "bufferView": 1,
      "byteOffset": 795392,
      "componentType": 5126,
      "count": 1424,
      "max": [
        1.0,
        0.9995805621147156
      ],
      "min": [
        -2.0353894569780095e-08,
        -8.446591870381326e-09
      ],
      "type": "VEC2"
    },
    {
      "bufferView": 1,
      "byteOffset": 806784,
      "componentType": 5126,
      "count": 1424,
      "max": [
        0.0,
        0.0
      ],
      "min": [
        0.0,
        0.0
      ],
      "type": "VEC2"
    },
    {
      "bufferView": 0,
      "byteOffset": 574116,
      "componentType": 5125,
      "count": 4854,
      "type": "SCALAR"
    },
    {
      "bufferView": 2,
      "byteOffset": 1269120,
      "componentType": 5126,
      "count": 508,
      "max": [
        0.026622425764799118,
        0.8215440511703491,
        -0.0972033217549324
      ],
      "min": [
        -0.09195142239332199,
        0.46659839153289795,
        -0.4347567856311798
      ],
      "type": "VEC3"
    },
    {
      "bufferView": 2,
      "byteOffset": 1275216,
      "componentType": 5126,
      "count": 508,
      "max": [
        0.7823897004127502,
        0.9928345680236816,
        0.9852035045623779
      ],
      "min": [
        -0.7823905348777771,
        -1.0,
        -0.955669641494751
      ],
      "type": "VEC3"
    },
    {
      "bufferView": 1,
      "byteOffset": 818176,
      "componentType": 5126,
      "count": 508,
      "max": [
        0.999997615814209,
        0.9681510329246521
      ],
      "min": [
        -4.2220992213515274e-07,
        -7.336686991266106e-08
      ],
      "type": "VEC2"
    },
    {
      "bufferView": 1,
      "byteOffset": 822240,
      "componentType": 5126,
      "count": 508,
      "max": [
        0.0,
        0.0
      ],
      "min": [
        0.0,
        0.0
      ],
      "type": "VEC2"
    },
    {
      "bufferView": 1,
      "byteOffset": 826304,
      "componentType": 5126,
      "count": 508,
      "max": [
        0.999997079372406,
        0.9010899662971497
      ],
      "min": [
        -1.1049361319237505e-06,
        -2.7409168978920206e-07
      ],
      "type": "VEC2"
    },
    {
      "bufferView": 1,
      "byteOffset": 830368,
      "componentType": 5126,
      "count": 508,
      "max": [
        0.999997615814209,
        0.9681510329246521
      ],
      "min": [
        -4.2220992213515274e-07,
        -7.336686991266106e-08
      ],
      "type": "VEC2"
    },
    {
      "bufferView": 0,
      "byteOffset": 593532,
      "componentType": 5125,
      "count": 1560,
      "type": "SCALAR"
    },
    {
      "bufferView": 2,
      "byteOffset": 1281312,
      "componentType": 5126,
      "count": 32,
      "max": [
        0.062199823558330536,
        0.5071322321891785,
        -0.12641876935958862
      ],
      "min": [
        -0.06279359757900238,
        0.4639066159725189,
        -0.24369847774505615
      ],
      "type": "VEC3"
    },
    {
      "bufferView": 2,
      "byteOffset": 1281696,
      "componentType": 5126,
      "count": 32,
      "max": [
        -0.00017862636013887823,
        -0.9390376210212708,
        0.343814492225647
      ],
      "min": [
        -0.00017862636013887823,
        -0.9390376210212708,
        0.343814492225647
      ],
      "type": "VEC3"
    },
    {
      "bufferView": 1,
      "byteOffset": 834432,
      "componentType": 5126,
      "count": 32,
      "max": [
        0.9999933242797852,
        1.000000238418579
      ],
      "min": [
        -1.3585498948032182e-07,
        1.636458648590633e-07
      ],
      "type": "VEC2"
    },
    {
      "bufferView": 1,
      "byteOffset": 834688,
      "componentType": 5126,
      "count": 32,
      "max": [
        0.0,
        0.0
      ],
      "min": [
        0.0,
        0.0
      ],
      "type": "VEC2"
    },
    {
      "bufferView": 1,
      "byteOffset": 834944,
      "componentType": 5126,
      "count": 32,
      "max": [
        0.9999933242797852,
        1.000000238418579
      ],
      "min": [
        -1.3585498948032182e-07,
        1.636458648590633e-07
      ],
      "type": "VEC2"
    },
    {
      "bufferView": 0,
      "byteOffset": 599772,
      "componentType": 5125,
      "count": 90,
      "type": "SCALAR"
    },
    {
      "bufferView": 2,
      "byteOffset": 1282080,
      "componentType": 5126,
      "count": 810,
      "max": [
        0.6879183053970337,
        0.7659672498703003,
        0.9036988019943237
      ],
      "min": [
        -0.6879183053970337,
        0.5034705400466919,
        0.655380129814148
      ],
      "type": "VEC3"
    },
    {
      "bufferView": 2,
      "byteOffset": 1291800,
      "componentType": 5126,
      "count": 810,
      "max": [
        0.9358078837394714,
        0.7480571866035461,
        0.8081147074699402
      ],
      "min": [
        -0.9358081221580505,
        -0.9944270849227905,
        -0.9999552965164185
      ],
      "type": "VEC3"
    },
    {
      "bufferView": 1,
      "byteOffset": 835200,
      "componentType": 5126,
      "count": 810,
      "max": [
        0.9999998807907104,
        0.9711042046546936
      ],
      "min": [
        2.292374290391308e-09,
        -1.8688658087739896e-07
      ],
      "type": "VEC2"
    },
    {
      "bufferView": 1,
      "byteOffset": 841680,
      "componentType": 5126,
      "count": 810,
      "max": [
        0.0,
        0.0
      ],
      "min": [
        0.0,
        0.0
      ],
      "type": "VEC2"
    },
    {
      "bufferView": 0,
      "byteOffset": 600132,
      "componentType": 5125,
      "count": 2160,
      "type": "SCALAR"
    },
    {
      "bufferView": 2,
      "byteOffset": 1301520,
      "componentType": 5126,
      "count": 3486,
      "max": [
        1.256805181503296,
        0.8902785181999207,
        1.026840090751648
      ],
      "min": [
        -1.256805181503296,
        -0.8904194235801697,
        -0.9005745649337769
      ],
      "type": "VEC3"
    },
    {
      "bufferView": 2,
      "byteOffset": 1343352,
      "componentType": 5126,
      "count": 3486,
      "max": [
        0.9296935200691223,
        0.9998970031738281,
        0.9908742904663086
      ],
      "min": [
        -0.9296935200691223,
        -0.999896764755249,
        -0.9641199111938477
      ],
      "type": "VEC3"
    },
    {
      "bufferView": 1,
      "byteOffset": 848160,
      "componentType": 5126,
      "count": 3486,
      "max": [
        0.9999998807907104,
        0.995623767375946
      ],
      "min": [
        -7.262906365212984e-08,
        -2.544701160900331e-08
      ],
      "type": "VEC2"
    },
    {
      "bufferView": 1,
      "byteOffset": 876048,
      "componentType": 5126,
      "count": 3486,
      "max": [
        0.0,
        0.0
      ],
      "min": [
        0.0,
        0.0
      ],
      "type": "VEC2"
    },
    {
      "bufferView": 0,
      "byteOffset": 608772,
      "componentType": 5125,
      "count": 8394,
      "type": "SCALAR"
    },
    {
      "bufferView": 2,
      "byteOffset": 1385184,
      "componentType": 5126,
      "count": 540,
      "max": [
        1.1035141944885254,
        0.8678237795829773,
        0.779354989528656
      ],
      "min": [
        -1.1035141944885254,
        -0.8679830431938171,
        -0.5600336194038391
      ],
      "type": "VEC3"
    },
    {
      "bufferView": 2,
      "byteOffset": 1391664,
      "componentType": 5126,
      "count": 540,
      "max": [
        0.9086633324623108,
        0.9835293292999268,
        0.9344180226325989
      ],
      "min": [
        -0.9086632132530212,
        -0.9490922689437866,
        -0.9337287545204163
      ],
      "type": "VEC3"
    },
    {
      "bufferView": 1,
      "byteOffset": 903936,
      "componentType": 5126,
      "count": 540,
      "max": [
        0.9636054039001465,
        1.0
      ],
      "min": [
        8.12832325891577e-08,
        -1.260453643681103e-07
      ],
      "type": "VEC2"
    },
    {
      "bufferView": 1,
      "byteOffset": 908256,
      "componentType": 5126,
      "count": 540,
      "max": [
        0.0,
        0.0
      ],
      "min": [
        0.0,
        0.0
      ],
      "type": "VEC2"
    },
    {
      "bufferView": 1,
      "byteOffset": 912576,
      "componentType": 5126,
      "count": 540,
      "max": [
        0.9636054039001465,
        1.0
      ],
      "min": [
        8.12832325891577e-08,
        -1.260453643681103e-07
      ],
      "type": "VEC2"
    },
    {
      "bufferView": 0,
      "byteOffset": 642348,
      "componentType": 5125,
      "count": 1224,
      "type": "SCALAR"
    },
    {
      "bufferView": 2,
      "byteOffset": 1398144,
      "componentType": 5126,
      "count": 6,
      "max": [
        0.32045671343803406,
        -1.3067238330841064,
        0.6713757514953613
      ],
      "min": [
        -0.32105499505996704,
        -1.3067240715026855,
        0.030016517266631126
      ],
      "type": "VEC3"
    },
    {
      "bufferView": 2,
      "byteOffset": 1398216,
      "componentType": 5126,
      "count": 6,
      "max": [
        -0.0,
        1.0,
        -4.830374678022054e-07
      ],
      "min": [
        -0.0,
        1.0,
        -4.830374678022054e-07
      ],
      "type": "VEC3"
    },
    {
      "bufferView": 1,
      "byteOffset": 916896,
      "componentType": 5126,
      "count": 6,
      "max": [
        0.8003485202789307,
        1.0
      ],
      "min": [
        6.556758691544928e-09,
        -3.160182515671295e-08
      ],
      "type": "VEC2"
    },
    {
      "bufferView": 1,
      "byteOffset": 916944,
      "componentType": 5126,
      "count": 6,
      "max": [
        0.8003485202789307,
        1.0
      ],
      "min": [
        6.556758691544928e-09,
        -3.160182515671295e-08
      ],
      "type": "VEC2"
    },
    {
      "bufferView": 1,
      "byteOffset": 916992,
      "componentType": 5126,
      "count": 6,
      "max": [
        0.0,
        0.0
      ],
      "min": [
        0.0,
        0.0
      ],
      "type": "VEC2"
    },
    {
      "bufferView": 0,
      "byteOffset": 647244,
      "componentType": 5125,
      "count": 12,
      "type": "SCALAR"
    },
    {
      "bufferView": 2,
      "byteOffset": 1398288,
      "componentType": 5126,
      "count": 167,
      "max": [
        0.7502584457397461,
        1.1147116422653198,
        0.7458909153938293
      ],
      "min": [
        -0.7502584457397461,
        0.9484028220176697,
        -0.7458909153938293
      ],
      "type": "VEC3"
    },
    {
      "bufferView": 2,
      "byteOffset": 1400292,
      "componentType": 5126,
      "count": 167,
      "max": [
        0.3140304982662201,
        0.9542064070701599,
        0.2221064269542694
      ],
      "min": [
        -0.31403055787086487,
        -1.0,
        -0.2993773818016052
      ],
      "type": "VEC3"
    },
    {
      "bufferView": 1,
      "byteOffset": 917040,
      "componentType": 5126,
      "count": 167,
      "max": [
        0.0,
        0.0
      ],
      "min": [
        0.0,
        0.0
      ],
      "type": "VEC2"
    },
    {
      "bufferView": 1,
      "byteOffset": 918376,
      "componentType": 5126,
      "count": 167,
      "max": [
        0.0,
        0.0
      ],
      "min": [
        0.0,
        0.0
      ],
      "type": "VEC2"
    },
    {
      "bufferView": 1,
      "byteOffset": 919712,
      "componentType": 5126,
      "count": 167,
      "max": [
        0.0,
        0.0
      ],
      "min": [
        0.0,
        0.0
      ],
      "type": "VEC2"
    },
    {
      "bufferView": 0,
      "byteOffset": 647292,
      "componentType": 5125,
      "count": 447,
      "type": "SCALAR"
    },
    {
      "bufferView": 2,
      "byteOffset": 1402296,
      "componentType": 5126,
      "count": 50,
      "max": [
        0.47985053062438965,
        0.17196282744407654,
        1.2698856592178345
      ],
      "min": [
        -0.4800381660461426,
        -0.6127914190292358,
        1.1555954217910767
      ],
      "type": "VEC3"
    },
    {
      "bufferView": 2,
      "byteOffset": 1402896,
      "componentType": 5126,
      "count": 50,
      "max": [
        0.2201455533504486,
        0.12645575404167175,
        -0.967235803604126
      ],
      "min": [
        -0.22014544904232025,
        0.12074895948171616,
        -0.9872819781303406
      ],
      "type": "VEC3"
    },
    {
      "bufferView": 1,
      "byteOffset": 921048,
      "componentType": 5126,
      "count": 50,
      "max": [
        0.6931246519088745,
        1.0
      ],
      "min": [
        -1.804056903864648e-10,
        -1.1970341162736986e-08
      ],
      "type": "VEC2"
    },
    {
      "bufferView": 1,
      "byteOffset": 921448,
      "componentType": 5126,
      "count": 50,
      "max": [
        0.6931246519088745,
        1.0
      ],
      "min": [
        -1.804056903864648e-10,
        -1.1970341162736986e-08
      ],
      "type": "VEC2"
    },
    {
      "bufferView": 1,
      "byteOffset": 921848,
      "componentType": 5126,
      "count": 50,
      "max": [
        0.0,
        0.0
      ],
      "min": [
        0.0,
        0.0
      ],
      "type": "VEC2"
    },
    {
      "bufferView": 0,
      "byteOffset": 649080,
      "componentType": 5125,
      "count": 120,
      "type": "SCALAR"
    },
    {
      "bufferView": 2,
      "byteOffset": 1403496,
      "componentType": 5126,
      "count": 169,
      "max": [
        -0.014000002294778824,
        0.8215440511703491,
        -0.424756795167923
      ],
      "min": [
        -0.018000002950429916,
        0.8210443258285522,
        -0.4287567436695099
      ],
      "type": "VEC3"
    },
    {
      "bufferView": 2,
      "byteOffset": 1405524,
      "componentType": 5126,
      "count": 169,
      "max": [
        0.7824046015739441,
        -0.18354211747646332,
        0.9556387066841125
      ],
      "min": [
        -0.7823905348777771,
        -1.0,
        -0.9556407928466797
      ],
      "type": "VEC3"
    },
    {
      "bufferView": 1,
      "byteOffset": 922248,
      "componentType": 5126,
      "count": 169,
      "max": [
        1.0000057220458984,
        0.8665962219238281
      ],
      "min": [
        -4.158736643944394e-08,
        3.022424266418966e-08
      ],
      "type": "VEC2"
    },
    {
      "bufferView": 1,
      "byteOffset": 923600,
      "componentType": 5126,
      "count": 169,
      "max": [
        0.0,
        0.0
      ],
      "min": [
        0.0,
        0.0
      ],
      "type": "VEC2"
    },
    {
      "bufferView": 1,
      "byteOffset": 924952,
      "componentType": 5126,
      "count": 169,
      "max": [
        0.6519381403923035,
        0.513708233833313
      ],
      "min": [
        0.629798412322998,
        0.5033286809921265
      ],
      "type": "VEC2"
    },
    {
      "bufferView": 1,
      "byteOffset": 926304,
      "componentType": 5126,
      "count": 169,
      "max": [
        1.0000057220458984,
        0.8665962219238281
      ],
      "min": [
        -4.158736643944394e-08,
        3.022424266418966e-08
      ],
      "type": "VEC2"
    },
    {
      "bufferView": 0,
      "byteOffset": 649560,
      "componentType": 5125,
      "count": 720,
      "type": "SCALAR"
    }
  ],
  "asset": {
    "extras": {
      "author": "MichaelEGA (https://sketchfab.com/MichaelEGA)",
      "license": "CC-BY-4.0 (http://creativecommons.org/licenses/by/4.0/)",
      "source": "https://sketchfab.com/3d-models/tie-fighter-cockpit-1d2a71977d4f48f0895e9636a528cfcd",
      "title": "Tie Fighter Cockpit"
    },
    "generator": "Sketchfab-16.62.0",
    "version": "2.0"
  },
  "bufferViews": [
    {
      "buffer": 0,
      "byteLength": 652440,
      "name": "floatBufferViews",
      "target": 34963
    },
    {
      "buffer": 0,
      "byteLength": 927656,
      "byteOffset": 652440,
      "byteStride": 8,
      "name": "floatBufferViews",
      "target": 34962
    },
    {
      "buffer": 0,
      "byteLength": 1407552,
      "byteOffset": 1580096,
      "byteStride": 12,
      "name": "floatBufferViews",
      "target": 34962
    }
  ],
  "buffers": [
    {
      "byteLength": 2987648,
      "uri": "scene.bin"
    }
  ],
  "images": [
    {
      "uri": "textures/bolts_canopy_baseColor.jpeg"
    },
    {
      "uri": "textures/bolts_hull_baseColor.jpeg"
    },
    {
      "uri": "textures/brackets_baseColor.jpeg"
    },
    {
      "uri": "textures/canopy_brace_baseColor.jpeg"
    },
    {
      "uri": "textures/canopy_struts_baseColor.jpeg"
    },
    {
      "uri": "textures/canopy_struts_bolts_baseColor.jpeg"
    },
    {
      "uri": "textures/canopy_struts_center_inset_baseColor.jpeg"
    },
    {
      "uri": "textures/canopy_struts_inset_baseColor.jpeg"
    },
    {
      "uri": "textures/detail_metal_painted_black_baseColor.jpeg"
    },
    {
      "uri": "textures/detail_metal_painted_grey_baseColor.jpeg"
    },
    {
      "uri": "textures/detail_metal_shiny_baseColor.jpeg"
    },
    {
      "uri": "textures/detail_pipes_baseColor.jpeg"
    },
    {
      "uri": "textures/floor_baseColor.jpeg"
    },
    {
      "uri": "textures/hatch_baseColor.jpeg"
    },
    {
      "uri": "textures/hull_baseColor.jpeg"
    },
    {
      "uri": "textures/red_lights_baseColor.jpeg"
    },
    {
      "uri": "textures/screen_baseColor.jpeg"
    },
    {
      "uri": "textures/sensors_baseColor.jpeg"
    },
    {
      "uri": "textures/triangles_baseColor.jpeg"
    },
    {
      "uri": "textures/triangles_lights_baseColor.jpeg"
    },
    {
      "uri": "textures/triangles_lights_emissive.png"
    },
    {
      "uri": "textures/glass_baseColor.jpeg"
    },
    {
      "uri": "textures/glass_metallicRoughness.png"
    },
    {
      "uri": "textures/yellow_lights_baseColor.jpeg"
    }
  ],
  "materials": [
    {
      "doubleSided": true,
      "name": "bolts_canopy",
      "pbrMetallicRoughness": {
        "baseColorTexture": {
          "index": 0
        },
        "metallicFactor": 0.0,
        "roughnessFactor": 0.6
      }
    },
    {
      "doubleSided": true,
      "name": "bolts_hull",
      "pbrMetallicRoughness": {
        "baseColorTexture": {
          "index": 1
        },
        "metallicFactor": 0.0,
        "roughnessFactor": 0.6
      }
    },
    {
      "doubleSided": true,
      "name": "brackets",
      "pbrMetallicRoughness": {
        "baseColorTexture": {
          "index": 2
        },
        "metallicFactor": 0.0,
        "roughnessFactor": 0.6
      }
    },
    {
      "doubleSided": true,
      "name": "canopy_brace",
      "pbrMetallicRoughness": {
        "baseColorTexture": {
          "index": 3
        },
        "metallicFactor": 0.0,
        "roughnessFactor": 0.6
      }
    },
    {
      "doubleSided": true,
      "name": "canopy_struts",
      "pbrMetallicRoughness": {
        "baseColorTexture": {
          "index": 4
        },
        "metallicFactor": 0.0,
        "roughnessFactor": 0.6
      }
    },
    {
      "doubleSided": true,
      "name": "canopy_struts_bolts",
      "pbrMetallicRoughness": {
        "baseColorTexture": {
          "index": 5
        },
        "metallicFactor": 0.0,
        "roughnessFactor": 0.6
      }
    },
    {
      "doubleSided": true,
      "name": "canopy_struts_center_inset",
      "pbrMetallicRoughness": {
        "baseColorTexture": {
          "index": 6
        },
        "metallicFactor": 0.0,
        "roughnessFactor": 0.6
      }
    },
    {
      "doubleSided": true,
      "name": "canopy_struts_inset",
      "pbrMetallicRoughness": {
        "baseColorTexture": {
          "index": 7
        },
        "metallicFactor": 0.0,
        "roughnessFactor": 0.6
      }
    },
    {
      "doubleSided": true,
      "name": "detail_metal_painted_black",
      "pbrMetallicRoughness": {
        "baseColorTexture": {
          "index": 8
        },
        "metallicFactor": 0.0,
        "roughnessFactor": 0.6
      }
    },
    {
      "doubleSided": true,
      "name": "detail_metal_painted_grey",
      "pbrMetallicRoughness": {
        "baseColorTexture": {
          "index": 9
        },
        "metallicFactor": 0.0,
        "roughnessFactor": 0.6
      }
    },
    {
      "doubleSided": true,
      "name": "detail_metal_shiny",
      "pbrMetallicRoughness": {
        "baseColorTexture": {
          "index": 10
        },
        "metallicFactor": 0.0,
        "roughnessFactor": 0.6
      }
    },
    {
      "doubleSided": true,
      "name": "detail_pipes",
      "pbrMetallicRoughness": {
        "baseColorTexture": {
          "index": 11
        },
        "metallicFactor": 0.0,
        "roughnessFactor": 0.6
      }
    },
    {
      "doubleSided": true,
      "name": "floor",
      "pbrMetallicRoughness": {
        "baseColorTexture": {
          "index": 12
        },
        "metallicFactor": 0.0,
        "roughnessFactor": 0.6
      }
    },
    {
      "doubleSided": true,
      "name": "hatch",
      "pbrMetallicRoughness": {
        "baseColorTexture": {
          "index": 13
        },
        "metallicFactor": 0.0,
        "roughnessFactor": 0.6
      }
    },
    {
      "doubleSided": true,
      "name": "hull",
      "pbrMetallicRoughness": {
        "baseColorTexture": {
          "index": 14
        },
        "metallicFactor": 0.0,
        "roughnessFactor": 0.6
      }
    },
    {
      "doubleSided": true,
      "emissiveFactor": [
        1.0,
        1.0,
        1.0
      ],
      "emissiveTexture": {
        "index": 15
      },
      "name": "red_lights",
      "pbrMetallicRoughness": {
        "baseColorTexture": {
          "index": 15
        },
        "metallicFactor": 0.0,
        "roughnessFactor": 0.6
      }
    },
    {
      "doubleSided": true,
      "emissiveFactor": [
        1.0,
        1.0,
        1.0
      ],
      "emissiveTexture": {
        "index": 16
      },
      "name": "screen",
      "pbrMetallicRoughness": {
        "baseColorTexture": {
          "index": 16
        },
        "metallicFactor": 0.0,
        "roughnessFactor": 0.6
      }
    },
    {
      "doubleSided": true,
      "name": "sensors",
      "pbrMetallicRoughness": {
        "baseColorTexture": {
          "index": 17
        },
        "metallicFactor": 0.0,
        "roughnessFactor": 0.6
      }
    },
    {
      "doubleSided": true,
      "name": "triangles",
      "pbrMetallicRoughness": {
        "baseColorTexture": {
          "index": 18
        },
        "metallicFactor": 0.0,
        "roughnessFactor": 0.6
      }
    },
    {
      "doubleSided": true,
      "emissiveFactor": [
        1.0,
        1.0,
        1.0
      ],
      "emissiveTexture": {
        "index": 20
      },
      "name": "triangles_lights",
      "pbrMetallicRoughness": {
        "baseColorTexture": {
          "index": 19
        },
        "metallicFactor": 0.0,
        "roughnessFactor": 0.6
      }
    },
    {
      "alphaMode": "BLEND",
      "doubleSided": true,
      "emissiveFactor": [
        1.0,
        1.0,
        1.0
      ],
      "emissiveTexture": {
        "index": 21,
        "texCoord": 1
      },
      "name": "glass",
      "pbrMetallicRoughness": {
        "baseColorFactor": [
          1.0,
          1.0,
          1.0,
          0.18888521193878482
        ],
        "baseColorTexture": {
          "index": 21
        },
        "metallicFactor": 0.0,
        "metallicRoughnessTexture": {
          "index": 22
        }
      }
    },
    {
      "doubleSided": true,
      "emissiveFactor": [
        1.0,
        1.0,
        1.0
      ],
      "emissiveTexture": {
        "index": 23
      },
      "name": "yellow_lights",
      "pbrMetallicRoughness": {
        "baseColorTexture": {
          "index": 23
        },
        "metallicFactor": 0.0,
        "roughnessFactor": 0.6
      }
    }
  ],
  "meshes": [
    {
      "name": "bolts_canopy_bolts_canopy_0",
      "primitives": [
        {
          "attributes": {
            "NORMAL": 1,
            "POSITION": 0,
            "TEXCOORD_0": 2
          },
          "indices": 3,
          "material": 0,
          "mode": 4
        }
      ]
    },
    {
      "name": "bolts_hull_bolts_hull_0",
      "primitives": [
        {
          "attributes": {
            "NORMAL": 5,
            "POSITION": 4,
            "TEXCOORD_0": 6
          },
          "indices": 7,
          "material": 1,
          "mode": 4
        }
      ]
    },
    {
      "name": "brackets_brackets_0",
      "primitives": [
        {
          "attributes": {
            "NORMAL": 9,
            "POSITION": 8,
            "TEXCOORD_0": 10,
            "TEXCOORD_1": 11
          },
          "indices": 12,
          "material": 2,
          "mode": 4
        }
      ]
    },
    {
      "name": "canopy_brace_canopy_brace_0",
      "primitives": [
        {
          "attributes": {
            "NORMAL": 14,
            "POSITION": 13,
            "TEXCOORD_0": 15,
            "TEXCOORD_1": 16
          },
          "indices": 17,
          "material": 3,
          "mode": 4
        }
      ]
    },
    {
      "name": "canopy_struts_canopy_struts_0",
      "primitives": [
        {
          "attributes": {
            "NORMAL": 19,
            "POSITION": 18,
            "TEXCOORD_0": 20,
            "TEXCOORD_1": 21
          },
          "indices": 22,
          "material": 4,
          "mode": 4
        }
      ]
    },
    {
      "name": "canopy_struts_bolts_canopy_struts_bolts_0",
      "primitives": [
        {
          "attributes": {
            "NORMAL": 24,
            "POSITION": 23,
            "TEXCOORD_0": 25,
            "TEXCOORD_1": 26
          },
          "indices": 27,
          "material": 5,
          "mode": 4
        }
      ]
    },
    {
      "name": "canopy_struts_center_inset_canopy_struts_center_inset_0",
      "primitives": [
        {
          "attributes": {
            "NORMAL": 29,
            "POSITION": 28,
            "TEXCOORD_0": 30,
            "TEXCOORD_1": 31
          },
          "indices": 32,
          "material": 6,
          "mode": 4
        }
      ]
    },
    {
      "name": "canopy_struts_insets_canopy_struts_inset_0",
      "primitives": [
        {
          "attributes": {
            "NORMAL": 34,
            "POSITION": 33,
            "TEXCOORD_0": 35,
            "TEXCOORD_1": 36
          },
          "indices": 37,
          "material": 7,
          "mode": 4
        }
      ]
    },
    {
      "name": "detail_metal_painted_black_detail_metal_painted_black_0",
      "primitives": [
        {
          "attributes": {
            "NORMAL": 39,
            "POSITION": 38,
            "TEXCOORD_0": 40,
            "TEXCOORD_1": 41,
            "TEXCOORD_2": 42
          },
          "indices": 43,
          "material": 8,
          "mode": 4
        }
      ]
    },
    {
      "name": "detail_metal_painted_grey_detail_metal_painted_grey_0",
      "primitives": [
        {
          "attributes": {
            "NORMAL": 45,
            "POSITION": 44,
            "TEXCOORD_0": 46,
            "TEXCOORD_1": 47,
            "TEXCOORD_2": 48
          },
          "indices": 49,
          "material": 9,
          "mode": 4
        }
      ]
    },
    {
      "name": "detail_metal_shiny_detail_metal_shiny_0",
      "primitives": [
        {
          "attributes": {
            "NORMAL": 51,
            "POSITION": 50,
            "TEXCOORD_0": 52,
            "TEXCOORD_1": 53,
            "TEXCOORD_2": 54
          },
          "indices": 55,
          "material": 10,
          "mode": 4
        }
      ]
    },
    {
      "name": "detail_pipes_detail_pipes_0",
      "primitives": [
        {
          "attributes": {
            "NORMAL": 57,
            "POSITION": 56,
            "TEXCOORD_0": 58
          },
          "indices": 59,
          "material": 11,
          "mode": 4
        }
      ]
    },
    {
      "name": "floor_floor_0",
      "primitives": [
        {
          "attributes": {
            "NORMAL": 61,
            "POSITION": 60,
            "TEXCOORD_0": 62,
            "TEXCOORD_1": 63
          },
          "indices": 64,
          "material": 12,
          "mode": 4
        }
      ]
    },
    {
      "name": "hatch_hatch_0",
      "primitives": [
        {
          "attributes": {
            "NORMAL": 66,
            "POSITION": 65,
            "TEXCOORD_0": 67,
            "TEXCOORD_1": 68
          },
          "indices": 69,
          "material": 13,
          "mode": 4
        }
      ]
    },
    {
      "name": "hull_hull_0",
      "primitives": [
        {
          "attributes": {
            "NORMAL": 71,
            "POSITION": 70,
            "TEXCOORD_0": 72,
            "TEXCOORD_1": 73
          },
          "indices": 74,
          "material": 14,
          "mode": 4
        }
      ]
    },
    {
      "name": "red_lights_red_lights_0",
      "primitives": [
        {
          "attributes": {
            "NORMAL": 76,
            "POSITION": 75,
            "TEXCOORD_0": 77,
            "TEXCOORD_1": 78,
            "TEXCOORD_2": 79,
            "TEXCOORD_3": 80
          },
          "indices": 81,
          "material": 15,
          "mode": 4
        }
      ]
    },
    {
      "name": "screen_screen_0",
      "primitives": [
        {
          "attributes": {
            "NORMAL": 83,
            "POSITION": 82,
            "TEXCOORD_0": 84,
            "TEXCOORD_1": 85,
            "TEXCOORD_2": 86
          },
          "indices": 87,
          "material": 16,
          "mode": 4
        }
      ]
    },
    {
      "name": "sensors_sensors_0",
      "primitives": [
        {
          "attributes": {
            "NORMAL": 89,
            "POSITION": 88,
            "TEXCOORD_0": 90,
            "TEXCOORD_1": 91
          },
          "indices": 92,
          "material": 17,
          "mode": 4
        }
      ]
    },
    {
      "name": "triangles_triangles_0",
      "primitives": [
        {
          "attributes": {
            "NORMAL": 94,
            "POSITION": 93,
            "TEXCOORD_0": 95,
            "TEXCOORD_1": 96
          },
          "indices": 97,
          "material": 18,
          "mode": 4
        }
      ]
    },
    {
      "name": "triangles_lights_triangles_lights_0",
      "primitives": [
        {
          "attributes": {
            "NORMAL": 99,
            "POSITION": 98,
            "TEXCOORD_0": 100,
            "TEXCOORD_1": 101,
            "TEXCOORD_2": 102
          },
          "indices": 103,
          "material": 19,
          "mode": 4
        }
      ]
    },
    {
      "name": "window_back_glass_0",
      "primitives": [
        {
          "attributes": {
            "NORMAL": 105,
            "POSITION": 104,
            "TEXCOORD_0": 106,
            "TEXCOORD_1": 107,
            "TEXCOORD_2": 108
          },
          "indices": 109,
          "material": 20,
          "mode": 4
        }
      ]
    },
    {
      "name": "window_front_glass_0",
      "primitives": [
        {
          "attributes": {
            "NORMAL": 111,
            "POSITION": 110,
            "TEXCOORD_0": 112,
            "TEXCOORD_1": 113,
            "TEXCOORD_2": 114
          },
          "indices": 115,
          "material": 20,
          "mode": 4
        }
      ]
    },
    {
      "name": "window_top_glass_0",
      "primitives": [
        {
          "attributes": {
            "NORMAL": 117,
            "POSITION": 116,
            "TEXCOORD_0": 118,
            "TEXCOORD_1": 119,
            "TEXCOORD_2": 120
          },
          "indices": 121,
          "material": 20,
          "mode": 4
        }
      ]
    },
    {
      "name": "yellow_lights_yellow_lights_0",
      "primitives": [
        {
          "attributes": {
            "NORMAL": 123,
            "POSITION": 122,
            "TEXCOORD_0": 124,
            "TEXCOORD_1": 125,
            "TEXCOORD_2": 126,
            "TEXCOORD_3": 127
          },
          "indices": 128,
          "material": 21,
          "mode": 4
        }
      ]
    }
  ],
  "nodes": [
    {
      "children": [
        1
      ],
      "matrix": [
        1.0,
        0.0,
        0.0,
        0.0,
        0.0,
        2.220446049250313e-16,
        -1.0,
        0.0,
        0.0,
        1.0,
        2.220446049250313e-16,
        0.0,
        0.0,
        0.0,
        0.0,
        1.0
      ],
      "name": "Sketchfab_model"
    },
    {
      "children": [
        2
      ],
      "matrix": [
        0.009999999776482582,
        0.0,
        0.0,
        0.0,
        0.0,
        0.0,
        0.009999999776482582,
        0.0,
        0.0,
        -0.009999999776482582,
        0.0,
        0.0,
        0.0,
        0.0,
        0.0,
        1.0
      ],
      "name": "aad6e7f23bf646eebc76723188b7bee5.fbx"
    },
    {
      "children": [
        3
      ],
      "name": "RootNode"
    },
    {
      "children": [
        4
      ],
      "name": "tie_cockpit"
    },
    {
      "children": [
        5,
        7,
        9,
        11,
        13,
        15,
        17,
        19,
        21,
        23,
        25,
        27,
        29,
        31,
        33,
        35,
        37,
        39,
        41,
        43,
        45,
        47,
        49,
        51
      ],
      "matrix": [
        -1.0,
        1.2246467991473535e-16,
        1.224646799147353e-16,
        0.0,
        1.2246467991473535e-16,
        1.0,
        1.2246467991473535e-16,
        0.0,
        -1.224646799147353e-16,
        1.2246467991473535e-16,
        -1.0,
        0.0,
        0.0,
        0.0,
        0.0,
        1.0
      ],
      "name": "cockpit"
    },
    {
      "children": [
        6
      ],
      "matrix": [
        100.0,
        -1.5777218104420234e-30,
        -1.5777218104420236e-30,
        0.0,
        -1.5771771726165408e-30,
        0.034514567042154276,
        -99.99999404372313,
        0.0,
        1.578266260320548e-30,
        99.99999404372313,
        0.034514567042154276,
        0.0,
        0.0,
        0.0,
        0.0,
        1.0
      ],
      "name": "bolts_canopy"
    },
    {
      "mesh": 0,
      "name": "bolts_canopy_bolts_canopy_0"
    },
    {
      "children": [
        8
      ],
      "matrix": [
        100.0,
        -1.5777218104420234e-30,
        -1.5777218104420236e-30,
        0.0,
        -1.5771771726165408e-30,
        0.034514567042154276,
        -99.99999404372313,
        0.0,
        1.578266260320548e-30,
        99.99999404372313,
        0.034514567042154276,
        0.0,
        0.0,
        0.0,
        0.0,
        1.0
      ],
      "name": "bolts_hull"
    },
    {
      "mesh": 1,
      "name": "bolts_hull_bolts_hull_0"
    },
    {
      "children": [
        10
      ],
      "matrix": [
        100.0,
        -1.5777218104420234e-30,
        -1.5777218104420236e-30,
        0.0,
        -1.5771771726165408e-30,
        0.034514567042154276,
        -99.99999404372313,
        0.0,
        1.578266260320548e-30,
        99.99999404372313,
        0.034514567042154276,
        0.0,
        0.0,
        0.0,
        0.0,
        1.0
      ],
      "name": "brackets"
    },
    {
      "mesh": 2,
      "name": "brackets_brackets_0"
    },
    {
      "children": [
        12
      ],
      "matrix": [
        100.0,
        -1.5777218104420234e-30,
        -1.5777218104420236e-30,
        0.0,
        -1.5771771726165408e-30,
        0.034514567042154276,
        -99.99999404372313,
        0.0,
        1.578266260320548e-30,
        99.99999404372313,
        0.034514567042154276,
        0.0,
        0.0,
        0.0,
        0.0,
        1.0
      ],
      "name": "canopy_brace"
    },
    {
      "mesh": 3,
      "name": "canopy_brace_canopy_brace_0"
    },
    {
      "children": [
        14
      ],
      "matrix": [
        100.0,
        -1.5777218104420234e-30,
        -1.5777218104420236e-30,
        0.0,
        -1.5771771726165408e-30,
        0.034514567042154276,
        -99.99999404372313,
        0.0,
        1.578266260320548e-30,
        99.99999404372313,
        0.034514567042154276,
        0.0,
        0.0,
        0.0,
        0.0,
        1.0
      ],
      "name": "canopy_struts"
    },
    {
      "mesh": 4,
      "name": "canopy_struts_canopy_struts_0"
    },
    {
      "children": [
        16
      ],
      "matrix": [
        100.0,
        -1.5777218104420234e-30,
        -1.5777218104420236e-30,
        0.0,
        -1.5771771726165408e-30,
        0.034514567042154276,
        -99.99999404372313,
        0.0,
        1.578266260320548e-30,
        99.99999404372313,
        0.034514567042154276,
        0.0,
        0.0,
        0.0,
        0.0,
        1.0
      ],
      "name": "canopy_struts_bolts"
    },
    {
      "mesh": 5,
      "name": "canopy_struts_bolts_canopy_struts_bolts_0"
    },
    {
      "children": [
        18
      ],
      "matrix": [
        100.0,
        -1.5777218104420234e-30,
        -1.5777218104420236e-30,
        0.0,
        -1.5771771726165408e-30,
        0.034514567042154276,
        -99.99999404372313,
        0.0,
        1.578266260320548e-30,
        99.99999404372313,
        0.034514567042154276,
        0.0,
        0.0,
        0.0,
        0.0,
        1.0
      ],
      "name": "canopy_struts_center_inset"
    },
    {
      "mesh": 6,
      "name": "canopy_struts_center_inset_canopy_struts_center_inset_0"
    },
    {
      "children": [
        20
      ],
      "matrix": [
        100.0,
        -1.5777218104420234e-30,
        -1.5777218104420236e-30,
        0.0,
        -1.5771771726165408e-30,
        0.034514567042154276,
        -99.99999404372313,
        0.0,
        1.578266260320548e-30,
        99.99999404372313,
        0.034514567042154276,
        0.0,
        0.0,
        0.0,
        0.0,
        1.0
      ],
      "name": "canopy_struts_insets"
    },
    {
      "mesh": 7,
      "name": "canopy_struts_insets_canopy_struts_inset_0"
    },
    {
      "children": [
        22
      ],
      "matrix": [
        100.0,
        -1.5777218104420234e-30,
        -1.5777218104420236e-30,
        0.0,
        -1.5771771726165408e-30,
        0.034514567042154276,
        -99.99999404372313,
        0.0,
        1.578266260320548e-30,
        99.99999404372313,
        0.034514567042154276,
        0.0,
        0.0,
        0.0,
        0.0,
        1.0
      ],
      "name": "detail_metal_painted_black"
    },
    {
      "mesh": 8,
      "name": "detail_metal_painted_black_detail_metal_painted_black_0"
    },
    {
      "children": [
        24
      ],
      "matrix": [
        100.0,
        -1.5777218104420234e-30,
        -1.5777218104420236e-30,
        0.0,
        -1.5771771726165408e-30,
        0.034514567042154276,
        -99.99999404372313,
        0.0,
        1.578266260320548e-30,
        99.99999404372313,
        0.034514567042154276,
        0.0,
        0.0,
        0.0,
        0.0,
        1.0
      ],
      "name": "detail_metal_painted_grey"
    },
    {
      "mesh": 9,
      "name": "detail_metal_painted_grey_detail_metal_painted_grey_0"
    },
    {
      "children": [
        26
      ],
      "matrix": [
        100.0,
        -1.5777218104420234e-30,
        -1.5777218104420236e-30,
        0.0,
        -1.5771771726165408e-30,
        0.034514567042154276,
        -99.99999404372313,
        0.0,
        1.578266260320548e-30,
        99.99999404372313,
        0.034514567042154276,
        0.0,
        0.0,
        0.0,
        0.0,
        1.0
      ],
      "name": "detail_metal_shiny"
    },
    {
      "mesh": 10,
      "name": "detail_metal_shiny_detail_metal_shiny_0"
    },
    {
      "children": [
        28
      ],
      "matrix": [
        100.0,
        -1.5777218104420234e-30,
        -1.5777218104420236e-30,
        0.0,
        -1.5771771726165408e-30,
        0.034514567042154276,
        -99.99999404372313,
        0.0,
        1.578266260320548e-30,
        99.99999404372313,
        0.034514567042154276,
        0.0,
        0.0,
        0.0,
        0.0,
        1.0
      ],
      "name": "detail_pipes"
    },
    {
      "mesh": 11,
      "name": "detail_pipes_detail_pipes_0"
    },
    {
      "children": [
        30
      ],
      "matrix": [
        100.0,
        -1.5777218104420234e-30,
        -1.5777218104420236e-30,
        0.0,
        -1.5771771726165408e-30,
        0.034514567042154276,
        -99.99999404372313,
        0.0,
        1.578266260320548e-30,
        99.99999404372313,
        0.034514567042154276,
        0.0,
        0.0,
        0.0,
        0.0,
        1.0
      ],
      "name": "floor"
    },
    {
      "mesh": 12,
      "name": "floor_floor_0"
    },
    {
      "children": [
        32
      ],
      "matrix": [
        100.0,
        -1.5777218104420234e-30,
        -1.5777218104420236e-30,
        0.0,
        -1.5771771726165408e-30,
        0.034514567042154276,
        -99.99999404372313,
        0.0,
        1.578266260320548e-30,
        99.99999404372313,
        0.034514567042154276,
        0.0,
        0.0,
        0.0,
        0.0,
        1.0
      ],
      "name": "hatch"
    },
    {
      "mesh": 13,
      "name": "hatch_hatch_0"
    },
    {
      "children": [
        34
      ],
      "matrix": [
        100.0,
        -1.5777218104420234e-30,
        -1.5777218104420236e-30,
        0.0,
        -1.5771771726165408e-30,
        0.034514567042154276,
        -99.99999404372313,
        0.0,
        1.578266260320548e-30,
        99.99999404372313,
        0.034514567042154276,
        0.0,
        0.0,
        0.0,
        0.0,
        1.0
      ],
      "name": "hull"
    },
    {
      "mesh": 14,
      "name": "hull_hull_0"
    },
    {
      "children": [
        36
      ],
      "matrix": [
        100.0,
        -1.5777218104420234e-30,
        -1.5777218104420236e-30,
        0.0,
        -1.5771771726165408e-30,
        0.034514567042154276,
        -99.99999404372313,
        0.0,
        1.578266260320548e-30,
        99.99999404372313,
        0.034514567042154276,
        0.0,
        0.0,
        0.0,
        0.0,
        1.0
      ],
      "name": "red_lights"
    },
    {
      "mesh": 15,
      "name": "red_lights_red_lights_0"
    },
    {
      "children": [
        38
      ],
      "matrix": [
        100.0,
        -1.5777218104420234e-30,
        -1.5777218104420236e-30,
        0.0,
        -1.5771771726165408e-30,
        0.034514567042154276,
        -99.99999404372313,
        0.0,
        1.578266260320548e-30,
        99.99999404372313,
        0.034514567042154276,
        0.0,
        0.0,
        0.0,
        0.0,
        1.0
      ],
      "name": "screen"
    },
    {
      "mesh": 16,
      "name": "screen_screen_0"
    },
    {
      "children": [
        40
      ],
      "matrix": [
        100.0,
        -1.5777218104420234e-30,
        -1.5777218104420236e-30,
        0.0,
        -1.5771771726165408e-30,
        0.034514567042154276,
        -99.99999404372313,
        0.0,
        1.578266260320548e-30,
        99.99999404372313,
        0.034514567042154276,
        0.0,
        0.0,
        0.0,
        0.0,
        1.0
      ],
      "name": "sensors"
    },
    {
      "mesh": 17,
      "name": "sensors_sensors_0"
    },
    {
      "children": [
        42
      ],
      "matrix": [
        100.0,
        -1.5777218104420234e-30,
        -1.5777218104420236e-30,
        0.0,
        -1.5771771726165408e-30,
        0.034514567042154276,
        -99.99999404372313,
        0.0,
        1.578266260320548e-30,
        99.99999404372313,
        0.034514567042154276,
        0.0,
        0.0,
        0.0,
        0.0,
        1.0
      ],
      "name": "triangles"
    },
    {
      "mesh": 18,
      "name": "triangles_triangles_0"
    },
    {
      "children": [
        44
      ],
      "matrix": [
        100.0,
        -1.5777218104420234e-30,
        -1.5777218104420236e-30,
        0.0,
        -1.5771771726165408e-30,
        0.034514567042154276,
        -99.99999404372313,
        0.0,
        1.578266260320548e-30,
        99.99999404372313,
        0.034514567042154276,
        0.0,
        0.0,
        0.0,
        0.0,
        1.0
      ],
      "name": "triangles_lights"
    },
    {
      "mesh": 19,
      "name": "triangles_lights_triangles_lights_0"
    },
    {
      "children": [
        46
      ],
      "matrix": [
        100.0,
        -1.5777218104420234e-30,
        -1.5777218104420236e-30,
        0.0,
        -1.5771771726165408e-30,
        0.034514567042154276,
        -99.99999404372313,
        0.0,
        1.578266260320548e-30,
        99.99999404372313,
        0.034514567042154276,
        0.0,
        0.0,
        0.0,
        0.0,
        1.0
      ],
      "name": "window_back"
    },
    {
      "mesh": 20,
      "name": "window_back_glass_0"
    },
    {
      "children": [
        48
      ],
      "matrix": [
        100.0,
        -1.5777218104420234e-30,
        -1.5777218104420236e-30,
        0.0,
        -1.5771771726165408e-30,
        0.034514567042154276,
        -99.99999404372313,
        0.0,
        1.578266260320548e-30,
        99.99999404372313,
        0.034514567042154276,
        0.0,
        0.0,
        0.0,
        0.0,
        1.0
      ],
      "name": "window_front"
    },
    {
      "mesh": 21,
      "name": "window_front_glass_0"
    },
    {
      "children": [
        50
      ],
      "matrix": [
        100.0,
        -1.5777218104420234e-30,
        -1.5777218104420236e-30,
        0.0,
        -1.5771771726165408e-30,
        0.034514567042154276,
        -99.99999404372313,
        0.0,
        1.578266260320548e-30,
        99.99999404372313,
        0.034514567042154276,
        0.0,
        0.0,
        0.0,
        0.0,
        1.0
      ],
      "name": "window_top"
    },
    {
      "mesh": 22,
      "name": "window_top_glass_0"
    },
    {
      "children": [
        52
      ],
      "matrix": [
        100.0,
        -1.5777218104420234e-30,
        -1.5777218104420236e-30,
        0.0,
        -1.5771771726165408e-30,
        0.034514567042154276,
        -99.99999404372313,
        0.0,
        1.578266260320548e-30,
        99.99999404372313,
        0.034514567042154276,
        0.0,
        0.0,
        0.0,
        0.0,
        1.0
      ],
      "name": "yellow_lights"
    },
    {
      "mesh": 23,
      "name": "yellow_lights_yellow_lights_0"
    }
  ],
  "samplers": [
    {
      "magFilter": 9729,
      "minFilter": 9987,
      "wrapS": 10497,
      "wrapT": 10497
    }
  ],
  "scene": 0,
  "scenes": [
    {
      "name": "Sketchfab_Scene",
      "nodes": [
        0
      ]
    }
  ],
  "textures": [
    {
      "sampler": 0,
      "source": 0
    },
    {
      "sampler": 0,
      "source": 1
    },
    {
      "sampler": 0,
      "source": 2
    },
    {
      "sampler": 0,
      "source": 3
    },
    {
      "sampler": 0,
      "source": 4
    },
    {
      "sampler": 0,
      "source": 5
    },
    {
      "sampler": 0,
      "source": 6
    },
    {
      "sampler": 0,
      "source": 7
    },
    {
      "sampler": 0,
      "source": 8
    },
    {
      "sampler": 0,
      "source": 9
    },
    {
      "sampler": 0,
      "source": 10
    },
    {
      "sampler": 0,
      "source": 11
    },
    {
      "sampler": 0,
      "source": 12
    },
    {
      "sampler": 0,
      "source": 13
    },
    {
      "sampler": 0,
      "source": 14
    },
    {
      "sampler": 0,
      "source": 15
    },
    {
      "sampler": 0,
      "source": 16
    },
    {
      "sampler": 0,
      "source": 17
    },
    {
      "sampler": 0,
      "source": 18
    },
    {
      "sampler": 0,
      "source": 19
    },
    {
      "sampler": 0,
      "source": 20
    },
    {
      "sampler": 0,
      "source": 21
    },
    {
      "sampler": 0,
      "source": 22
    },
    {
      "sampler": 0,
      "source": 23
    }
  ]
}
